<?xml version="1.0" encoding="utf-8"?>
<!-- Generator: Adobe Illustrator 21.0.0, SVG Export Plug-In . SVG Version: 6.00 Build 0)  -->
<svg version="1.0" xmlns="http://www.w3.org/2000/svg" xmlns:xlink="http://www.w3.org/1999/xlink" x="0px" y="0px"
	 viewBox="0 0 64 64" style="enable-background:new 0 0 64 64;" xml:space="preserve">
<style type="text/css">
	.st0{fill:none;stroke:#000000;stroke-width:2.3;stroke-miterlimit:10;}
	.st1{clip-path:url(#SVGID_2_);}
</style>
<g id="Circle">
	<circle class="st0" cx="32" cy="32" r="30"/>
</g>
<g id="Layer_1">
	<g>
		<path d="M31.7,24.2c2,0,3.7-1.7,3.7-3.7c0-2-1.7-3.7-3.7-3.7c-2,0-3.7,1.7-3.7,3.7C28,22.5,29.6,24.2,31.7,24.2L31.7,24.2z
			 M31.7,24.2"/>
		<g>
			<defs>
				<rect id="SVGID_1_" x="11.2" y="16.6" width="41.4" height="30.6"/>
			</defs>
			<clipPath id="SVGID_2_">
				<use xlink:href="#SVGID_1_"  style="overflow:visible;"/>
			</clipPath>
			<path class="st1" d="M44.2,26c1.7,0,3-1.4,3-3c0-1.7-1.4-3-3-3c-1.7,0-3,1.4-3,3C41.2,24.6,42.6,26,44.2,26L44.2,26z M44.2,26"/>
			<path class="st1" d="M52.2,20.3c-0.2-0.3-0.5-0.4-0.9-0.5c0,0-0.1,0-0.1,0c-0.7,0-1.2,0.5-1.3,1.2c-0.1,1.1-0.3,2.5-0.5,2.9
				c-0.3,0.4-1.5,1.5-2.8,2.7h-4.5c-0.9-0.8-1.8-1.7-2.4-2.2c0.8-0.8,0.9-1.1,1-1.3c0.6-1.3,1-4.2,1-4.8c0.1-0.9-0.5-1.6-1.4-1.7
				c-0.1,0-0.1,0-0.2,0c-0.8,0-1.5,0.6-1.6,1.4c-0.1,0.7-0.2,1.4-0.3,2.1c-0.2-0.2-0.5-0.3-0.8-0.3c0,0-0.1,0-0.1,0
				c-0.3,0-0.7,0.2-0.9,0.5c-0.2,0.3-0.3,0.6-0.3,0.9c0,0.3,0.1,1.1,0.3,1.9c-0.6,0.5-1.2,1.2-1.9,1.8h-5.5
				c-0.7-0.6-1.4-1.2-1.9-1.8c0.2-0.9,0.2-1.7,0.3-1.9c0-0.3-0.1-0.7-0.3-0.9c-0.2-0.3-0.5-0.4-0.9-0.5c0,0-0.1,0-0.1,0
				c-0.3,0-0.6,0.1-0.8,0.3c-0.1-0.7-0.2-1.4-0.3-2.1c-0.1-0.8-0.8-1.4-1.6-1.4c-0.1,0-0.1,0-0.2,0c-0.4,0-0.8,0.2-1.1,0.6
				c-0.3,0.3-0.4,0.7-0.3,1.2c0.1,0.6,0.4,3.5,1,4.8c0.1,0.2,0.2,0.5,1,1.3c-0.5,0.5-1.4,1.4-2.4,2.2h-4.5c-1.3-1.2-2.5-2.3-2.8-2.7
				c-0.2-0.4-0.4-1.9-0.5-2.9c-0.1-0.7-0.6-1.2-1.3-1.2c0,0-0.1,0-0.1,0c-0.3,0-0.7,0.2-0.9,0.5c-0.2,0.3-0.3,0.6-0.3,0.9
				c0,0.5,0.3,2.9,0.8,3.9c0.4,0.7,2.3,2.5,4.1,4v14.7c0,0.7,0.6,1.3,1.3,1.3c0.7,0,1.3-0.6,1.3-1.3v-7.9h0.8v7.9
				c0,0.7,0.6,1.3,1.3,1.3c0.7,0,1.3-0.6,1.3-1.3V29.4c1.2-1.1,2.6-2.3,3.5-3.2c0.1,0.1,0.1,0.1,0.2,0.2c0.7,0.7,1.4,1.3,1.9,1.7
				v17.4c0,0.9,0.7,1.7,1.7,1.7c0.9,0,1.7-0.7,1.7-1.7v-9.2h1v9.2c0,0.9,0.7,1.7,1.7,1.7c0.9,0,1.7-0.7,1.7-1.7V28.4
				c0.4-0.3,1.3-1.1,2.2-2c0.1-0.1,0.1-0.1,0.2-0.2c0.8,0.9,2.1,2,3.2,3v14.7c0,0.7,0.6,1.3,1.3,1.3c0.7,0,1.3-0.6,1.3-1.3v-7.9h0.8
				v7.9c0,0.7,0.6,1.3,1.3,1.3c0.7,0,1.3-0.6,1.3-1.3V29.4c1.8-1.6,3.9-3.5,4.3-4.3c0.5-1,0.8-3.4,0.8-3.9
				C52.5,20.9,52.4,20.5,52.2,20.3L52.2,20.3z M52.2,20.3"/>
		</g>
		<path d="M19.2,26c1.7,0,3-1.4,3-3c0-1.7-1.4-3-3-3c-1.7,0-3,1.4-3,3C16.2,24.6,17.5,26,19.2,26L19.2,26z M19.2,26"/>
	</g>
</g>
</svg>
