<?xml version="1.0" encoding="utf-8"?>
<!-- Generator: Adobe Illustrator 24.2.1, SVG Export Plug-In . SVG Version: 6.00 Build 0)  -->
<svg version="1.1" id="Layer_1" xmlns="http://www.w3.org/2000/svg" xmlns:xlink="http://www.w3.org/1999/xlink" x="0px" y="0px"
	 viewBox="0 0 64 64" style="enable-background:new 0 0 64 64;" xml:space="preserve">
<style type="text/css">
	.st0{fill:none;stroke:#E22333;stroke-width:2.3;stroke-miterlimit:10;}
	.st1{fill:#E22333;}
</style>
<g id="Circle">
	<circle class="st0" cx="32" cy="32" r="30"/>
</g>
<g id="Layer_1_1_">
	<path class="st1" d="M49.2,17.5h-9.4l-0.8-3C38.6,13,37.3,12,35.7,12h-7.5c-1.6,0-2.9,1.1-3.3,2.6l-0.7,2.9h-9.4
		c-1.9,0-3.4,1.5-3.4,3.4v24.7c0,1.9,1.5,3.4,3.4,3.4h34.4c1.9,0,3.4-1.5,3.4-3.4V20.9C52.6,19,51,17.5,49.2,17.5z M26.2,14.8
		c0.2-0.9,1.1-1.6,2-1.6h7.5c1,0,1.8,0.7,2,1.6l0.7,2.6h-1.5l-0.6-2.3c-0.1-0.3-0.3-0.5-0.6-0.5h-7.5c-0.3,0-0.6,0.2-0.6,0.5
		L27,17.4h-1.5L26.2,14.8z M35.6,17.5h-7.2l0.4-1.5h6.5L35.6,17.5z M14.8,18.8h34.4c0.6,0,1.2,0.3,1.6,0.7l-4.2,12.6
		C46.2,33.2,45.2,34,44,34h-9.3v-1.4c0-0.7-0.6-1.3-1.3-1.3h-2.7c-0.7,0-1.3,0.6-1.3,1.3V34H20c-1.2,0-2.3-0.8-2.6-1.9l-4.2-12.6
		C13.6,19,14.2,18.8,14.8,18.8z M33.4,35.3h-2.8v-2.8l0,0h2.7l0,0L33.4,35.3L33.4,35.3z M30.6,36.6h2.8V38l0,0h-2.7l0,0v-1.4H30.6z
		 M49.2,47.7H14.8c-1.2,0-2.1-0.9-2.1-2.1V22.1l3.5,10.4c0.6,1.7,2.1,2.8,3.9,2.8h9.3V38c0,0.7,0.6,1.3,1.3,1.3h2.7
		c0.7,0,1.3-0.6,1.3-1.3v-2.8H44c1.8,0,3.3-1.1,3.9-2.8L51.4,22v23.5C51.3,46.8,50.3,47.7,49.2,47.7z"/>
</g>
</svg>
