<?xml version="1.0" encoding="utf-8"?>
<!-- Generator: Adobe Illustrator 21.0.0, SVG Export Plug-In . SVG Version: 6.00 Build 0)  -->
<svg version="1.0" xmlns="http://www.w3.org/2000/svg" xmlns:xlink="http://www.w3.org/1999/xlink" x="0px" y="0px"
	 viewBox="0 0 64 64" style="enable-background:new 0 0 64 64;" xml:space="preserve">
<style type="text/css">
	.st0{fill:none;stroke:#000000;stroke-width:2.3;stroke-miterlimit:10;}
	.st1{clip-path:url(#SVGID_2_);fill:#080808;}
	.st2{clip-path:url(#SVGID_2_);fill:#231F20;}
	.st3{clip-path:url(#SVGID_2_);}
	.st4{fill:#080808;}
</style>
<g id="Circle">
	<circle class="st0" cx="32" cy="32" r="30"/>
</g>
<g id="Layer_1">
	<g>
		<defs>
			<rect id="SVGID_1_" y="1" width="62" height="62"/>
		</defs>
		<clipPath id="SVGID_2_">
			<use xlink:href="#SVGID_1_"  style="overflow:visible;"/>
		</clipPath>
		<path class="st1" d="M37.5,16c0.4,0,0.5-0.3,0.6-0.6c0.1-0.2,0.3-0.4,0.2-0.6c-0.1-0.2-0.1-0.3-0.3-0.3l-0.1,0
			c-0.3-0.2-0.5,0-0.7,0.3c-0.2,0.2-0.3,0.5-0.2,0.8C37,15.9,37.2,16,37.5,16"/>
		<path class="st1" d="M38.3,14.6c0,0,0.1,0.1,0.1,0.2c0.2,0.2,0.1,0.3,0.4,0.3l0.2,0.2c-0.2,0-0.5,0.2-0.5,0.3c0,0,0,0.3,0,0.3
			c0,0.1,0.2,0.1,0.3,0.1c0,0-0.1,0-0.1,0c0,0.1-0.1,0.2-0.2,0.3c0,0.1,0,0.1,0,0.2c0,0.1,0,0.1,0,0.2c0.3,0,0.5-0.1,0.8-0.1
			c0.1,0,0.3,0,0.4-0.1c0.1,0,0.3,0,0.4-0.1c0.3-0.1,0.4-0.3,0.3-0.6c-0.1-0.1-0.1-0.3-0.2-0.4c-0.1-0.1-0.2-0.2-0.3-0.3
			c-0.1-0.1-0.2-0.2-0.3-0.2c-0.1-0.1-0.2-0.1-0.3-0.2c-0.2-0.2-0.3-0.5-0.4-0.7c-0.1-0.2-0.3-0.4-0.5-0.6c-0.1-0.1-0.3-0.1-0.4,0
			C38,13.6,38,13.7,38,13.9C38,14.1,38.3,14.3,38.3,14.6"/>
		<path class="st1" d="M14.1,37c0.2-0.1,0.3-0.4,0.5-0.4c0.1,0,0.3,0,0.4,0c0.3-0.1,0.1-0.3-0.1-0.3c-0.2-0.1-0.5,0-0.7,0
			c-0.3,0-0.5,0-0.7-0.2c-0.1-0.1-0.1-0.2-0.2-0.3c-0.1-0.1-0.2-0.2-0.3-0.4c-0.1-0.2-0.1-0.5-0.1-0.7c0-0.1,0-0.3,0-0.4
			c0-0.1-0.1-0.3-0.1-0.4c-0.1-0.1-0.3-0.1-0.4-0.1c-0.2,0-0.4,0-0.6-0.1c-0.1,0-0.3-0.1-0.4-0.1c-0.1-0.1,0-0.3,0-0.4
			c0.1-0.2,0.2-0.4,0.3-0.6c0.1-0.2,0.2-0.4,0.2-0.6c0-0.1,0-0.3,0-0.4c0-0.2,0-0.2-0.2-0.2c-0.2,0-0.3,0.1-0.4,0.1
			c0,0.1-0.1,0-0.1,0.1c-0.2,0.2-0.3,0.5-0.5,0.7c-0.2,0.2-0.6,0.2-0.8,0.2c-0.3,0-0.4-0.3-0.6-0.5c-0.1-0.1-0.2-0.2-0.2-0.4
			c-0.1-0.2-0.2-0.5-0.2-0.8c0-0.2,0-0.3,0.1-0.5C8.9,30,8.9,29.8,9,29.7c0-0.1,0.1-0.3,0.2-0.4c0.1-0.2,0.1-0.3,0.2-0.4
			c0-0.1,0.2-0.3,0.3-0.3c0.1-0.1,0.4-0.3,0.5-0.3c0.4,0,0.7,0.1,1,0.1c0.2,0,0.3,0,0.4-0.1c0.1-0.1,0.1-0.2,0.2-0.3
			c0.1-0.1,0.2-0.1,0.4-0.1c0.2,0,0.2,0.1,0.4,0.1c0.1,0.1,0.2,0.1,0.4,0c0.2-0.1,0.2,0,0.3,0.2c0,0.1,0,0.3,0.1,0.4
			c0.1,0.3,0.2,0.6,0.3,0.8c0.1,0.1,0.2,0.3,0.3,0.3c0.1,0.1,0.2,0,0.3,0c0.1-0.3,0-0.7-0.1-1c0-0.2-0.1-0.3-0.1-0.5
			c0-0.4-0.1-0.8,0.3-1.1c0.1-0.1,0.2-0.1,0.3-0.2c0.1-0.1,0.2-0.2,0.3-0.2c0-0.1,0.2-0.2,0.3-0.3c0.2-0.2,0.5-0.4,0.7-0.7
			c0.1-0.1,0.1-0.2,0.2-0.3c0-0.1,0-0.3,0-0.5c0-0.3,0.2-0.7,0.5-0.7c0.1,0,0.2,0,0.2-0.2c0-0.1,0.1-0.2,0.1-0.3
			c0.2-0.1,0.3-0.4,0.5-0.5c0.2-0.1,0.5-0.1,0.7-0.3c0.2-0.1,0.2-0.2,0.2-0.5c0-0.2,0.2-0.3,0.3-0.4c0.2-0.1,0.3-0.3,0.5-0.4
			c0.2-0.1,0.4-0.1,0.6-0.1c0.7,0,1.4,0,2.1-0.2c0.2-0.1,0.4-0.2,0.5-0.3c0.1-0.1,0.1-0.3,0-0.4c-0.2-0.2-0.6,0.2-0.8,0.3
			c-0.3,0.2-0.7,0-0.8-0.3c-0.1-0.1-0.1-0.3,0-0.4c0.1-0.1,0.2-0.2,0.3-0.3c0-0.1,0.1-0.1,0.1-0.2c0-0.1,0-0.1-0.1-0.1
			c-0.1,0-0.3,0-0.4,0c-0.1,0-0.3,0.1-0.4,0.1c-0.1,0-0.5,0.1-0.6,0c0.1-0.1,0.1-0.1,0.2-0.2c0.1-0.1,0.2-0.1,0.4-0.2
			c0.2-0.1,0.3-0.1,0.5-0.3C20.7,19,21,19,21.3,19c0.3,0,0.6-0.1,0.9-0.1c0.2,0,0.5,0,0.7-0.1c0.1-0.1,0.2-0.2,0.3-0.2
			c0.1-0.1,0.2-0.1,0.3-0.1c0.2,0,0.3-0.1,0.5-0.1c0.3-0.1,0.4-0.5,0.2-0.7c-0.1-0.1-0.2-0.1-0.3-0.2c-0.1-0.1-0.1-0.2-0.1-0.4
			c-0.1-0.3-0.5-0.2-0.7-0.4c-0.1-0.2-0.1-0.6-0.1-0.8c0-0.1,0-0.3-0.1-0.4c-0.1-0.1-0.2-0.2-0.3-0.3c-0.1,0-0.1-0.2-0.1-0.3
			c0-0.1-0.1-0.2-0.2-0.3c-0.2-0.1-0.3,0.2-0.4,0.3c-0.1,0.1-0.3,0.2-0.5,0.3c-0.1,0.1-0.1,0.1-0.3,0.1c-0.1,0-0.2,0-0.3-0.1
			c-0.2-0.1-0.2-0.1-0.1-0.3c0-0.1,0.1-0.3,0.1-0.4c0-0.2,0-0.3-0.1-0.3c-0.1,0-0.1,0-0.2-0.1s0-0.1,0-0.1c-0.1-0.2-0.2-0.2-0.3-0.2
			c-0.1-0.1-0.3-0.1-0.4-0.2c-0.3-0.1-0.7-0.1-0.9,0c-0.2,0.2-0.2,0.4-0.3,0.6c-0.1,0.3-0.2,0.6-0.4,0.8c-0.1,0.1-0.2,0.2-0.1,0.4
			c0.1,0.2,0.3,0.2,0.3,0.5c0,0.4-0.1,0.5-0.4,0.7c-0.2,0.2-0.5,0.2-0.8,0.3c-0.1,0.1-0.2,0.1-0.3,0.3c0,0.1,0,0.3,0,0.4
			c0,0.2,0.1,0.7-0.2,0.8c-0.1,0-0.4,0-0.5-0.1C16,18.2,16,18.1,16,17.9c0-0.3,0.2-0.6,0.1-0.8C16,17,16,16.8,15.9,16.8
			c-0.1-0.1-0.2-0.1-0.4-0.2c-0.3-0.1-0.4-0.4-0.7-0.5c-0.2-0.1-0.5-0.2-0.6-0.5c-0.1-0.3-0.1-0.8,0.1-1c0.1-0.1,0.2-0.1,0.2-0.2
			c0.2-0.2,0.4-0.3,0.5-0.4c0.3-0.2,0.6-0.5,0.8-0.7c0.2-0.3,0.6-0.5,0.8-0.7c0.2-0.2,0.5-0.3,0.8-0.5c0.1-0.1,0.3-0.1,0.4-0.2
			c0.1,0,0.3,0,0.5,0c0.3,0,0.6-0.1,0.8-0.3c0.2-0.2,0.3-0.5,0.3-0.8c0-0.3-0.5-0.1-0.7,0c-0.2,0.2-0.5,0.5-0.8,0.4
			c0-0.1,0-0.1,0-0.2c-0.4,0-0.2-0.4-0.1-0.5c0.1-0.2,0.1-0.3,0.1-0.5c0-0.2,0-0.4,0-0.6c-0.2,0-0.4,0.1-0.5,0.2
			c-0.1,0-0.1,0.1-0.2,0.2c-0.1,0.1-0.1,0.1-0.2,0.2c-0.1,0.1,0,0.2,0,0.3c0,0.1,0,0.2-0.1,0.3c-0.1,0.1-0.2,0.3-0.3,0.4
			c-0.2,0.1-0.4,0.3-0.6,0.4c-0.1,0-0.3,0-0.4,0c-0.2,0-0.3-0.1-0.5-0.1c-0.2,0-0.7-0.1-0.8,0c-0.1,0.1,0,0.3-0.3,0.3
			c-0.1,0-0.1,0-0.2,0c0,0,0,0-0.1-0.1c-0.1,0-0.1,0-0.2,0c0-0.1-0.1-0.1-0.1-0.2c0-0.1,0-0.2,0-0.3c0-0.2,0-0.5-0.2-0.6
			c-0.2-0.1-0.4,0.1-0.6,0.1c-0.1,0-0.2,0-0.3,0c-0.1,0-0.2-0.1-0.3-0.2l0,0.1c-0.1,0.1-0.3,0.3-0.4,0.4c-0.2,0.2-0.4,0.4-0.6,0.6
			c-0.2,0.1-0.4,0.3-0.5,0.5c-0.1,0.1-0.2,0.2-0.3,0.4c0,0.1-0.1,0.2-0.2,0.2c-0.1,0.1-0.2,0.3-0.3,0.4c0,0.1-0.1,0.1-0.2,0.2
			c0,0-0.1,0.1-0.1,0.1c-0.1,0-0.2,0.1-0.3,0.1c0,0,0,0,0,0c-0.2,0-0.3,0.3-0.4,0.4c-0.1,0.2-0.4,0.3-0.4,0.5
			c-0.1,0-0.1,0.1-0.1,0.2c0,0,0,0,0,0c0,0.2-0.2,0.4-0.2,0.6c-0.1,0.2-0.2,0.4-0.2,0.6c-0.2,0.4-0.3,0.7-0.4,1.2
			c-0.1,0.6-0.4,1.2-0.6,1.8c-0.1,0.2-0.1,0.5-0.2,0.7c-0.1,0.4-0.2,0.7-0.5,1c-0.1,0.1-0.1,0.2-0.2,0.2c-0.1,0.2-0.2,0.3-0.2,0.5
			c-0.1,0.2-0.2,0.4-0.2,0.6c0,0.2-0.2,0.5-0.3,0.7c-0.1,0.2-0.1,0.6-0.2,0.8c-0.1,0.3-0.1,0.5-0.2,0.8c0,0.3-0.1,0.6-0.1,0.9v0.7
			c0,0.1,0,0.2,0,0.3c0,0.1,0.1,0.1,0.1,0.2c0,0,0,0,0,0c0,0.1,0.1,0.2,0.1,0.3c0,0.1,0.1,0.2,0.1,0.3c0,0.2,0,0.5,0,0.7
			c0,0.3,0.1,0.6,0.1,0.9c0,0.3,0,0.6,0.1,0.9c0.1,0.4,0.2,1.2,0.7,1.4c0,0,0-0.1,0-0.1c0-0.1,0-0.2,0-0.3c0-0.1,0-0.2-0.1-0.3
			c-0.1-0.2-0.2-0.5-0.3-0.7c-0.1-0.3-0.2-0.6-0.2-0.9c0-0.2-0.1-0.7,0.2-0.8c0.1,0.3,0.1,0.6,0.2,0.9c0,0.1,0,0.3,0.1,0.4
			c0,0.1,0.1,0.3,0.2,0.4c0.1,0,0.1,0.3,0.2,0.3c0,0.1,0.1,0.3,0.1,0.3c0,0.1,0.1,0.2,0.1,0.4c0,0.2,0,0.4,0.1,0.7
			C7,30.7,7,30.8,7.1,30.9c0.1,0.2,0.1,0.4,0.1,0.7c0,0.2,0,0.5,0.1,0.6c0.1,0.2,0.2,0.4,0.3,0.6c0,0,0.1,0.1,0.1,0.1c0,0,0,0,0,0
			c0,0.1,0.1,0.1,0.2,0.2c0.1,0.1,0.2,0.2,0.3,0.2c0,0.1,0.4,0.2,0.6,0.3c0.2,0.1,0.4,0,0.6,0c0.2,0,0.4,0,0.6,0.1
			c0.3,0.1,0.4,0.1,0.5,0.3c0.1,0.2,0.3,0.4,0.5,0.6c0.1,0.1,0.2,0.1,0.3,0.2c0.1,0.1,0.2,0.2,0.3,0.2c0.2,0.1,0.5,0.3,0.6,0.5
			c0.1,0.1,0.1,0.2,0.2,0.3c0,0.1,0.1,0.2,0.2,0.3c0.1,0.1,0.1,0.1,0.3,0.2c0.2,0.1,0.4,0.3,0.6,0.4C13.6,36.8,13.9,37.1,14.1,37"/>
		<path class="st1" d="M29.6,43.9c0-0.1,0-0.3-0.1-0.4c-0.1-0.1-0.2-0.2-0.4-0.2c-0.1,0-0.3,0-0.4-0.1c-0.1,0-0.2-0.1-0.3-0.2
			c-0.2-0.2-0.5-0.5-0.8-0.5c-0.2,0-0.3,0-0.5-0.1c-0.2,0-0.5,0-0.7,0c-0.2-0.1-0.5-0.3-0.7-0.4c-0.1-0.1-0.3-0.2-0.4-0.2
			c-0.1,0-0.3,0-0.4,0c-0.1,0-0.1-0.2-0.3-0.2c-0.1,0-0.3,0-0.4,0c-0.2,0-0.3,0-0.4,0.2c-0.1,0.1,0,0.2-0.1,0.4c0,0-0.1,0-0.1,0
			c0-0.1-0.2-0.1-0.2-0.1c0-0.2,0.1-0.3,0.2-0.5c0.1-0.1,0.3-0.3,0.2-0.5c-0.1-0.2-0.2-0.3-0.3-0.5c-0.1-0.1-0.1-0.2-0.2-0.3
			c0-0.1,0-0.1-0.1-0.2c0,0-0.1,0-0.1-0.1c-0.1,0-0.2-0.1-0.3-0.2c-0.2-0.1-0.4-0.3-0.7-0.4c-0.3-0.1-0.6-0.1-0.9-0.1
			c-0.3-0.1-0.6-0.1-0.8-0.3c-0.1-0.1-0.1-0.2-0.2-0.3c-0.2-0.3-0.9-0.2-1-0.7c0-0.1,0-0.2,0-0.3c0-0.1-0.2-0.2-0.3-0.2
			c-0.3,0-0.5,0.1-0.7,0.1c-0.3,0-0.6,0-0.8-0.1c-0.1,0-0.3,0-0.4,0c-0.1,0-0.2-0.1-0.3-0.1c0-0.2-0.2-0.3-0.3-0.3
			c-0.2,0-0.4,0-0.5,0.1c-0.1,0.1-0.3,0.2-0.3,0.3c0,0.1,0,0.2,0.1,0.2c0,0.1,0,0.2,0,0.3c-0.1,0-0.2,0-0.2-0.1c0-0.1,0-0.2,0-0.3
			c0-0.2,0-0.3,0.1-0.5c0-0.1,0.1-0.2,0-0.3c0-0.1-0.2-0.1-0.3-0.1c-0.4,0,0,0.4-0.3,0.5c-0.1,0.1-0.2,0-0.3,0.1
			c-0.1,0-0.2,0.1-0.3,0.2c-0.1,0.1-0.1,0.2-0.2,0.3c0,0.1-0.1,0.2-0.2,0.3c-0.2,0-0.1,0.4-0.2,0.5c-0.1,0.1-0.2,0.1-0.2,0.3
			c0,0.1,0.1,0.2,0.1,0.3c0.1,0.1,0.2,0.3,0.3,0.4c0.1,0.1,0.2,0.2,0.2,0.4c0,0.2,0,0.3-0.1,0.4c-0.1,0.1-0.2,0.1-0.3,0.2
			c-0.3,0.3-0.6,0.9-0.5,1.4c0.1,0,0.1,0.1,0.1,0.2c0.2,0.1,0.2,0.5,0.2,0.7c0,0.3,0,0.6,0.1,0.8c0.1,0.2,0.3,0.3,0.4,0.5
			c0.2,0.2,0.3,0.3,0.4,0.5c0.2,0.2,0.4,0.4,0.6,0.7c0.2,0.2,0.3,0.5,0.5,0.7c0.2,0.3,0.3,0.5,0.6,0.8c0.2,0.2,0.5,0.3,0.8,0.4
			c0.3,0.1,0.7,0.3,1,0.6c0.1,0.1,0.2,0.2,0.2,0.3c0.1,0.2,0.3,0.5,0.3,0.7c0.1,0.3,0.1,0.6,0.3,0.9c0.1,0.3,0.3,0.6,0.4,0.9
			c0,0,0,0,0,0c0.1,0.2,0.3,0.4,0.3,0.7c0,0.3,0,0.6,0.1,0.8c0.1,0.3,0.2,0.6,0.3,0.9c0,0.1,0.1,0.2,0.1,0.4
			c0.1,0.2,0.1,0.3,0.2,0.4c0.1,0.1,0.1,0.3,0.1,0.4c0.1,0.3,0.3,0.5,0.5,0.8c0.3,0.3,0.6,0.5,0.8,0.8c0.1,0.3,0.1,0.5,0.3,0.7
			c0.2,0.2,0.4,0.4,0.6,0.6c0.2,0.3,0.6,0.5,0.8,0.8c0.1,0.1,0.2,0.2,0.3,0.3c0.1,0.1,0.3,0.1,0.3,0.2c0.2,0,0.4,0.2,0.7,0.3
			c0.1,0.1,0.3,0.1,0.4,0.1c0.2,0,0.3,0,0.5-0.1c0.1,0,0.2-0.1,0.1-0.2c0-0.1-0.2-0.1-0.3-0.1c-0.3-0.1-0.5-0.1-0.7-0.2
			c-0.1-0.1-0.2-0.1-0.3-0.2c-0.1,0-0.2-0.2-0.3-0.2c0-0.1-0.1-0.2-0.2-0.2c-0.1-0.1-0.1-0.2-0.2-0.3c0-0.2,0-0.5-0.1-0.6
			c0-0.1-0.2-0.1-0.3-0.1c-0.1-0.1-0.1-0.1-0.2-0.2c-0.1-0.1-0.1-0.3,0-0.5c0-0.1,0.2-0.4,0.1-0.6c-0.1-0.1-0.4-0.1-0.4-0.3
			c0.1,0,0.2-0.1,0.3-0.1c0-0.2,0-0.4,0.2-0.5c0.1,0,0.2-0.1,0.3-0.1c0.1,0,0.2-0.1,0.3-0.1c0,0,0.4-0.3,0.2-0.4c0,0,0-0.1,0-0.1
			c-0.2-0.1-0.3-0.3-0.4-0.4c-0.1-0.1-0.2-0.1-0.2-0.2c0-0.1,0-0.1,0.1-0.2c0.2,0,0.4,0,0.6,0c0.1,0,0.2,0,0.3,0
			c0.1,0,0.1-0.1,0.2-0.1c0.1-0.1,0.1-0.3,0.2-0.4c0-0.1,0.1-0.2,0.2-0.3c0.1-0.1,0.2-0.2,0.3-0.3c0-0.1,0.1-0.2,0.1-0.2
			c0.1-0.2,0.2-0.4,0.2-0.6c0-0.4-0.2-0.8,0.1-1.1c0.1-0.2,0.5-0.3,0.7-0.3c0-0.2,0.7-0.3,0.9-0.3c0.3-0.1,0.4-0.2,0.5-0.5
			c0.1-0.2,0.2-0.5,0.2-0.7c0.1-0.3,0.1-0.5,0.1-0.8c0-0.1,0-0.3,0-0.4c0-0.2,0-0.4,0.1-0.6c0-0.2,0-0.4,0.2-0.5
			c0.1-0.1,0.2-0.2,0.3-0.3c0.1-0.1,0.2-0.1,0.3-0.2c0.1,0,0.2-0.2,0.2-0.3c0.1-0.1,0.2-0.2,0.2-0.3c0.1-0.1,0-0.2,0-0.4
			C29.6,44.1,29.6,44,29.6,43.9"/>
		<path class="st2" d="M26.4,57.7l0,0.1c0,0.1,0.1,0,0.1,0.1c0.1,0.1,0.1,0.1,0.2,0.1c0.1,0,0.2,0,0.2-0.1c0-0.1,0-0.2,0-0.3
			C26.8,57.6,26.4,57.5,26.4,57.7"/>
		<path class="st1" d="M33.4,10C33.4,10,33.4,10,33.4,10C33.4,10.1,33.4,10.1,33.4,10L33.4,10z"/>
		<path class="st1" d="M34.5,9.8c-0.2,0-1.1-0.1-1.1,0.3c0,0,0,0,0,0l0,0c0,0,0,0,0,0c-0.1,0.1-0.2,0.2-0.3,0.1
			c-0.1-0.1-0.1-0.2-0.3-0.3c-0.1-0.2-0.3,0.1-0.3,0.2c0,0.1-0.1,0.4,0,0.5c0,0.1,0.2,0.3,0.3,0.4c0.1,0.2,0.3,0.2,0.5,0.2
			c0.4,0,0.8,0,1.1-0.1c0.2,0,0.3-0.1,0.5-0.3c0.1-0.1,0.2-0.2,0.3-0.3C35.4,10.1,34.9,9.9,34.5,9.8"/>
		<path class="st1" d="M32.6,8.8c0,0,0-0.1,0.1-0.2c0-0.1,0.1-0.1,0.1-0.1C32.9,8.4,33,8.3,33,8.2c0.1-0.1,0-0.3-0.1-0.4
			c-0.2-0.1-0.3-0.2-0.2-0.4c0.1,0,0.3,0,0.4,0c0.1,0,0.2,0.1,0.3,0.1c0-0.3,0-0.3-0.3-0.4C33,7,32.8,6.9,32.7,6.7
			c-0.2,0-0.4-0.3-0.4-0.5c0-0.1,0-0.5-0.2-0.6c0,0,0,0,0-0.1c-0.2-0.1-0.4-0.3-0.7-0.5c-0.2-0.1-0.2-0.2-0.2-0.4c0-0.1,0-0.3,0-0.4
			c0-0.2,0-0.1-0.2-0.1c-0.2,0-0.3,0-0.4,0.1c-0.2,0.1-0.3,0.1-0.5,0.1c-0.2,0-0.4-0.1-0.6,0c-0.2,0-0.3,0.2-0.4,0.3
			c-0.3,0.2-0.7,0.3-1,0.3c-0.2,0-0.3,0.1-0.5,0.1c-0.2,0.1-0.2,0.2-0.3,0.3c-0.1,0.3-0.6,0.2-0.9,0.3c-0.4,0.1-0.4,0.4-0.4,0.8
			c0.2,0,0.3,0,0.5,0c0.2,0,0.2,0.1,0.2,0.3c0.1,0.2,0.1,0.3,0.1,0.5c0,0.3-0.2,0.5-0.2,0.8c0,0.3,0,0.2-0.2,0.3
			c-0.1,0.1-0.1,0.2-0.2,0.3C26.1,8.8,26.1,8.9,26,9c-0.1,0.1-0.1,0.1-0.1,0.2c0,0.1,0,0.1,0.1,0.2c0.1,0,0.3,0,0.4-0.1
			c0.1,0,0.3,0,0.4-0.2c0.1-0.1,0.1-0.3,0.2-0.3c0,0.2-0.1,0.4-0.2,0.6c0,0,0,0,0,0c-0.1,0,0,0-0.1,0.1c-0.1,0-0.1,0-0.1,0.1
			c-0.2,0-0.3,0.4-0.4,0.5c0,0.1-0.2,0.2-0.3,0.3c-0.1,0.1-0.2,0.2-0.3,0.3c-0.1,0.2,0.1,0.6,0.2,0.8c0.1,0.2,0.3,0.4,0.4,0.6
			c0.1,0.3,0,0.6,0.2,0.8c0.1,0.1,0.3,0.2,0.4,0.3c0.1,0,0.2,0.1,0.2,0.1c0.1,0.1,0.1,0.2,0.2,0.2c0.2,0.1,0.4,0,0.6-0.1
			c0.2-0.1,0.3-0.1,0.3,0.1c0,0.1,0,0.3,0.2,0.4c0.2,0.1,0.5,0,0.6-0.1c0.2-0.1,0.3-0.1,0.4-0.3c0.1-0.1,0.1-0.3,0.2-0.4
			c0.1,0,0.1-0.2,0.1-0.2c-0.4-0.1,0-0.8,0.1-0.9c0,0,0,0,0-0.1c0.3-0.1,0.1-0.7,0.2-0.9c0.1-0.1,0.3-0.1,0.4-0.3
			c0.2-0.2,0.1-0.3,0.4-0.3c0.2,0,0.5,0,0.7-0.1c0-0.3,0.1-0.4,0.2-0.6c0.1-0.2,0.2-0.5,0.5-0.6C32.3,8.9,32.5,9,32.6,8.8"/>
		<path class="st1" d="M24.2,19.2C24.2,19.2,24.2,19.2,24.2,19.2C24.1,19.2,24.1,19.2,24.2,19.2L24.2,19.2z"/>
		<path class="st1" d="M24,20.6c0.1,0.1,0.3,0.1,0.4,0.1c0.2,0,0.3,0,0.5,0c0.2-0.1,0.2-0.2,0.2-0.4c0-0.2,0-0.3-0.1-0.4
			c-0.1-0.1-0.1-0.3-0.2-0.4c-0.2-0.2-0.5-0.2-0.7-0.3c0,0,0,0,0,0l-0.1-0.1c0,0,0,0,0.1,0c0-0.2-0.2-0.4-0.4-0.3
			c-0.1,0-0.3,0.3-0.4,0.4c-0.1,0.1-0.3,0.3-0.4,0.4c-0.1,0.2-0.2,0.2-0.2,0.5c0.3,0.2,0.8-0.1,1.2,0C23.9,20.3,23.9,20.5,24,20.6"
			/>
		<path class="st1" d="M18.1,12.3c-0.2,0-0.4,0-0.5,0.1c-0.1,0.1-0.6,0.5-0.5,0.6h0c0,0.2,0.3,0,0.4,0c0.2,0,0.4,0,0.5,0.1
			c0.1,0,0.4,0,0.5-0.1c0.1-0.1-0.1-0.3-0.2-0.4C18.3,12.5,18.2,12.3,18.1,12.3"/>
		<path class="st1" d="M19,9.2c-0.1,0.1-0.3,0.2-0.3,0.3c-0.1,0.1,0,0.4,0,0.5c0.3,0.4,0.9,0.3,1.3,0.2c0.3-0.1,0.8-0.1,0.9,0.2
			c0.1,0.3-0.3,0.4-0.5,0.6c-0.1,0.1-0.3,0.2-0.2,0.3c0.1,0.1,0.4,0.1,0.5,0.1c0-0.1,0.1-0.1,0.1-0.2c0-0.1,0.1-0.1,0.2-0.2
			c0.1,0,0.4-0.1,0.4,0.1c0,0.2-0.2,0.4-0.4,0.4c-0.2,0.1-0.3,0.1-0.4,0.3c-0.1,0.2,0,0.3,0,0.5c-0.1,0-0.1,0-0.2,0
			c-0.1-0.2-1.1-0.1-1.1,0.2c0,0,0,0,0,0c0,0,0,0.1,0,0.1c0.2,0.1,0.6,0.1,0.8,0.1c0.1,0,0.2,0,0.3,0.1c0.1,0.1,0.2,0.3,0.3,0.4
			c0.2,0.2,0.4,0.4,0.6,0.6c0.2,0.2,0.4,0.1,0.7,0.1c0-0.2-0.5-0.7-0.3-0.8c0.2-0.2,0.7,0.4,0.8,0.4c0.5,0.1,0.2-0.6,0-0.7
			c-0.2-0.2-0.5-0.5-0.3-0.8c0.2,0,0.3,0,0.5,0c0.2,0.1,0.2,0.2,0.4,0.3c0.1,0.1,0.4,0.1,0.5,0.1c0.1,0,0.4-0.3,0.4-0.4
			c0.1,0,0.2-0.1,0.2-0.2c-0.1-0.1-0.4-0.2-0.6-0.3c-0.2-0.1-0.3-0.2-0.4-0.4c-0.1-0.1-0.3-0.2-0.2-0.4c0-0.1,0.1-0.2,0.1-0.3
			c0-0.1,0.1-0.2,0.1-0.4c0.1-0.6-0.5-0.6-0.9-0.8c-0.2-0.1-0.3-0.2-0.5-0.4c-0.1,0-0.1-0.1-0.1-0.1c-0.1,0-0.2,0-0.3,0.1
			c0,0-0.1,0.1-0.1,0.1c-0.1-0.3-0.3-0.5-0.6-0.5c-0.1,0-0.3,0.1-0.4,0.1c-0.1,0.1-0.3,0.2-0.3,0.3C20,9,19.9,9.1,19.8,9.2
			c0-0.1,0-0.2,0-0.3c0,0,0.1-0.1,0.1-0.1c0,0,0-0.1,0-0.1c0,0,0,0,0,0c0,0,0-0.1,0-0.1c-0.2,0.1-0.4,0.1-0.6,0.3
			C19.2,9,19.1,9.1,19,9.2"/>
		<path class="st1" d="M14.6,10C14.6,10,14.6,10,14.6,10C14.6,10.1,14.6,10.1,14.6,10L14.6,10z"/>
		<path class="st1" d="M14.3,9.6c0.2,0,0.2,0,0.2,0.2c0,0.1,0.1,0.2,0.1,0.3c0,0,0,0,0,0l-0.1,0c0,0,0,0,0,0c-0.1,0-0.4,0.1-0.4,0.2
			c-0.1,0.1-0.1,0.3-0.1,0.4c-0.1,0.3,0.2,0.2,0.4,0.2c0.2,0,0.4,0,0.5-0.1c0.2-0.1,0.3-0.1,0.6-0.1c0.2,0,0.3,0.1,0.4,0
			c0.1-0.1,0.1-0.3,0.2-0.5c0.1-0.2,0.2-0.3,0.2-0.5c0.1-0.1,0.1-0.3,0.3-0.4c0.1-0.2,0.3-0.1,0.2-0.4c-0.1-0.2-0.3-0.1-0.5-0.2
			c0-0.2,0-0.3-0.2-0.5c-0.1-0.1-0.3-0.1-0.5-0.2c-0.2,0-0.3,0-0.5,0.1c-0.1,0.1-0.5,0.2-0.5,0.3c-0.2,0-0.3,0.2-0.4,0.3
			C14.2,8.8,14,9.1,14,9.2C13.9,9.5,14.1,9.6,14.3,9.6"/>
		<path class="st1" d="M17.4,9.3L17.4,9.3c0.3,0,0.4-0.1,0.6-0.1c0.2,0,0.3,0,0.5,0c0-0.2,0.6-0.5,0.8-0.5c0-0.1,0-0.2,0-0.2
			c-0.1,0-0.2,0-0.2,0c0,0.2-0.2,0.2-0.3,0c-0.3,0-1.1-0.1-1,0.4C17.5,8.9,17.1,9,17.4,9.3"/>
		<path class="st1" d="M16.5,10.4c-0.1,0.1-0.1,0.2-0.1,0.3c0.1,0,0.2,0,0.3,0c0-0.1,0.1-0.1,0.1-0.2l0-0.1
			C16.7,10.4,16.6,10.4,16.5,10.4"/>
		<path class="st1" d="M17.5,8.2c0.1-0.3,0.4-0.3,0.7-0.4c0.2-0.1,0.4-0.3,0.4-0.4v0.1c0.1,0,0.1,0,0.2,0c0-0.3,0.1-0.3,0.3-0.3
			c0.1,0,0.4-0.1,0.4-0.3c-0.2-0.1-0.5-0.1-0.8,0c0,0.3-0.2,0.5-0.5,0.5c0.1-0.1,0.3-0.1,0.2-0.3c-0.5,0-0.9,0.2-1.3,0.5
			c-0.1,0.1-0.3,0.4-0.3,0.6C16.9,8.3,17.3,8.2,17.5,8.2"/>
		<path class="st1" d="M55.6,42.1c-0.2,0.4-0.7,0.5-0.9,0.9c-0.4,0.1-0.5,0.1-0.5,0.4c-0.1,0.3-0.1,0.6-0.2,0.9
			c0,0.2-0.2,0.5-0.3,0.6c-0.1,0.2-0.3,0.2-0.4,0.5c-0.1,0.4-0.2,0.7-0.1,1.1c0.6,0.1,0.9-0.1,1.1-0.6c0.1-0.1,0.3-0.4,0.3-0.6
			c0.2-0.4,0.5-0.8,0.7-1.3c0.1-0.2,0.2-0.4,0.3-0.7c0.1-0.2,0.3-0.4,0.3-0.7c0.1-0.2,0.1-0.6,0-0.8C55.8,41.3,55.7,41.9,55.6,42.1"
			/>
		<path class="st1" d="M49.8,23l0-0.3c-0.2,0-0.6-0.1-0.6,0.1C49.1,23.1,49.6,23,49.8,23"/>
		<path class="st1" d="M52,22.8c0,0-0.1-0.1-0.2-0.1c-0.1-0.1-0.5-0.1-0.4,0.3c0.1,0.2,0.5,0.1,0.6,0.1C52.1,22.9,52.1,22.8,52,22.8
			C52,22.8,52.1,22.8,52,22.8"/>
		<path class="st1" d="M43.9,21.3c0.1,0.1,0.3,0.1,0.5,0.1c0-0.3,0-0.7-0.1-1c-0.1-0.2-0.1-0.6-0.5-0.6c0,0.1-0.1,0.2-0.1,0.2l0,0.2
			c0,0.2,0,0.2,0.1,0.3c0.1,0.2,0.3,0.2,0.2,0.4C43.9,21.1,43.8,21.2,43.9,21.3"/>
		<path class="st2" d="M14.5,31.6c0.2,0.2,0.3,0.5,0.7,0.4c0.2,0,0.8,0,0.9-0.2c0-0.1-0.1-0.2-0.2-0.2c-0.1-0.1-0.2-0.2-0.3-0.2
			c0-0.1-0.2-0.2-0.3-0.3c-0.1-0.1-0.1-0.2-0.2-0.3c-0.1-0.1-0.3-0.1-0.4-0.1c-0.2-0.1-0.3-0.1-0.5-0.1c-0.3,0-0.6,0-0.8,0.1
			c-0.2,0.1-0.4,0.2-0.6,0.3c0,0,0,0.1,0,0.2c0.1,0.1,0.2,0.1,0.3,0.1c0.2,0,0.2,0,0.3-0.1c0.1-0.1,0.2-0.1,0.3-0.1
			c0.1,0,0.2,0,0.3,0c0,0,0.1,0.1,0.1,0.1l0,0C14.1,31.3,14.3,31.4,14.5,31.6"/>
		<path class="st2" d="M16.2,32.7c0.2,0.1,0.4,0.1,0.6,0.1c0.1,0,0.3,0.1,0.4,0.1c0.3,0,0.6,0,0.9-0.1c0.2,0,0.2-0.1,0.1-0.3
			c-0.1-0.2-0.3-0.3-0.5-0.4c-0.3-0.2-0.7-0.3-1.1-0.3c0,0-0.1,0.1-0.1,0.1h0c-0.1,0-0.1,0.1-0.1,0.2c0,0.1,0.1,0.1,0.2,0.2
			c-0.1,0.2-0.4,0-0.6,0.1C15.9,32.5,16.1,32.7,16.2,32.7"/>
		<path class="st2" d="M18.6,33c0.1,0.2,0.5,0.2,0.6,0.2c0-0.1,0.2-0.4,0-0.5c-0.1-0.1-0.4-0.1-0.5,0l0.1,0
			C18.6,32.6,18.6,32.8,18.6,33"/>
		<path class="st1" d="M20,8.2c0.5,0.1,1.2,0.1,1.6-0.1c0.1,0,0.5-0.1,0.6-0.3c0.1-0.3-0.3-0.3-0.4-0.2c-0.1,0-0.1,0-0.2,0l0,0.1h0
			c-0.1,0-0.3,0-0.5,0c-0.2,0-0.2-0.2-0.3-0.3c-0.1-0.1-0.1-0.2-0.2-0.2c-0.1,0-0.3,0-0.5,0c0,0.1,0.2,0.1,0.2,0.2
			c0.1,0.1,0,0.2,0,0.3C20.1,7.9,19.9,8,20,8.2"/>
		<path class="st1" d="M19,7.9c0.2,0,0.4,0,0.5-0.1c0.1-0.1,0.3-0.2,0.3-0.4c-0.1,0,0-0.2-0.1-0.2l0,0.2C19.2,7.5,19,7.5,19,7.9"/>
		<path class="st1" d="M20.4,6.8c0,0.1,0.2,0.1,0.1,0.1h0c0.1-0.1,0.5,0,0.5-0.2c0-0.1-0.1-0.2-0.1-0.3c0-0.1,0.1-0.1,0-0.2
			c-0.2-0.1-0.7-0.1-0.8,0.2C20.1,6.7,20.2,6.6,20.4,6.8"/>
		<path class="st1" d="M22,6.6c0,0,0-0.1,0.1-0.2c0.1-0.1,0.1-0.1,0.2-0.1c0.2-0.1,0.4-0.1,0.6-0.2c0.2-0.1,0.3-0.2,0.4-0.4l0,0.1
			c0.1,0,0.1-0.1,0.1-0.1c0.2,0,0.5-0.1,0.7-0.2c0.2-0.1,0.3-0.1,0.3-0.3c-0.3,0-0.6,0-0.9,0.1c-0.2,0.1-0.4,0.2-0.6,0.3
			c-0.1,0.1-0.3,0.1-0.4,0.2c-0.1,0.1-0.3,0.1-0.5,0.2c-0.1,0.1-0.3,0.2-0.4,0.3c0,0.1,0,0.2,0,0.3C21.8,6.6,21.9,6.6,22,6.6"/>
		<path class="st1" d="M22.4,7.4c0.1,0,0.2,0,0.3,0c0.1,0,0.1,0,0.2,0.1c0.2,0.1,0.5,0,0.6-0.2c0.1-0.1,0.1,0,0.1-0.1
			c0-0.1,0-0.2,0-0.2c0-0.1,0-0.3,0.1-0.4c0.1-0.1,0.4-0.1,0.5-0.1c0.1,0,0.3,0,0.4-0.1c0.1-0.1,0.1-0.2,0.2-0.2
			c0.2-0.2,0.4-0.3,0.7-0.3c0.2,0,0.4,0,0.5-0.1c0.3-0.2,0.6-0.3,0.8-0.5c0.1-0.1,0.1-0.1,0.1-0.2c0,0,0.1-0.1,0.1-0.1c0,0,0,0,0,0
			c-0.2-0.1-0.6-0.1-0.8-0.1c-0.2,0-0.4,0.1-0.6,0.1c-0.1,0-0.3,0-0.3,0.1c-0.1,0.1,0,0.1-0.1,0.2c0,0.1-0.1,0.1-0.1,0.2
			c0,0.1-0.1,0.2-0.1,0.3c-0.1,0.1-0.2,0.1-0.2,0.2c-0.1,0.1-0.3,0.2-0.4,0.3C24.1,6,23.9,6,23.8,6c-0.3,0.1-0.6,0.2-0.9,0.2l-0.1,0
			c-0.1,0,0,0-0.1,0.1c-0.1,0.1-0.1,0.3-0.1,0.5c0,0.1,0,0.2-0.2,0.2c-0.1,0-0.3,0-0.3-0.1C22,7,22,6.9,21.9,6.9
			c-0.1,0-0.4,0.2-0.4,0.3C21.6,7.5,22.2,7.4,22.4,7.4"/>
		<path class="st3" d="M56.6,22.1c-0.1,0.2-0.2,0.2-0.5,0.1c-0.7-0.2-0.9-1.2-1.1-1.8h0C55,20,54.8,20,54.5,19.9
			c-0.2-0.1-0.3-0.4-0.4-0.7c-0.2-0.5-0.3-1,0.3-1.3c0.2-0.1,0.5-0.1,0.6,0.2c0.1,0.3-0.2,0.4-0.2,0.7c-0.1,0.5,0.4,0.9,0.9,1.1
			c0.1,0,0.1,0,0.1,0.1c0.1,0,0.5,0.1,0.5,0.2c0.1,0.1,0,0.4-0.2,0.5c0,0.2,0.2,0.3,0.3,0.5c0.1,0.1,0.2,0.3,0.2,0.5
			C56.7,21.6,56.7,22,56.6,22.1 M53.1,20.4c-0.4,0-0.9,0-1.2-0.1c-0.2-0.1-1.1-0.4-1.1,0c0,0.2-0.7-0.1-0.7,0.2
			c-0.4-0.1-0.5-0.6-0.6-0.9c0-0.5,0-0.8,0.2-1.2c0.3-0.2,0.3-0.2,0.6,0c0.3,0.2,0.3,0.3,0.3,0.6c0.2,0.1,1.1,0.2,1-0.2
			c-0.3,0-0.5-0.4-0.3-0.6c0.1-0.1,0.4-0.2,0.5-0.2c0.1,0.1,0,0.4,0.1,0.5c0.2,0.5,0.9,0.7,1.3,1.1C53.2,19.7,53.1,20.1,53.1,20.4
			 M46.5,12.7c-0.2,0.1-0.5,0.1-0.8,0.1c-0.1,0.4,0.7,0.4,0.5,0.8c0,0-0.1,0.1-0.1,0.2c-0.1,0-0.2,0-0.2,0.1
			c-0.1,0.1-0.1,0.2-0.1,0.4c0,0.1,0,0.3-0.1,0.4c-0.1,0.1-0.1,0.2-0.3,0.3c-0.1,0.1-0.2,0.2-0.4,0.2c-0.2,0-0.3-0.1-0.4-0.1
			c-0.2,0-0.4,0-0.5,0.1c-0.1,0.1-0.2,0.1-0.4,0.1c-0.2,0-0.9,0-0.7-0.4c0.1-0.1,0.4-0.2,0.5-0.3c0.2,0,0.3-0.1,0.4-0.1
			c0.3-0.2,0.5-0.5,0.4-0.9c0-0.2-0.1-0.3-0.1-0.5c0-0.1-0.2-0.2-0.1-0.3l0.1,0c-0.1,0-0.3-0.2-0.3-0.3c-0.1-0.1-0.2-0.2-0.2-0.3
			c0,0-0.1-0.1-0.1-0.1c0,0-0.1-0.1-0.2-0.1c-0.1-0.2,0.2-0.3,0.3-0.4c0.1-0.2,0-0.3-0.1-0.5c-0.1-0.1-0.2-0.3-0.1-0.4
			c0-0.1,0.2-0.2,0.3-0.3c0.1-0.1,0.3-0.2,0.5-0.1c0.1,0,0.2,0,0.3,0c0.2,0.3-0.1,0.6-0.2,0.9c-0.1,0.3,0,0.6,0.1,0.9
			c0.1,0.4,0.5,0.7,0.9,0.6c0.2,0,0.4-0.1,0.6-0.1c0.2,0,0.4,0,0.6,0C46.9,12.4,46.7,12.6,46.5,12.7 M47.6,6.9l-0.1,0.2
			c-0.1,0.2-0.1,0.4,0.1,0.5c0.2,0.1,0.3,0.2,0.5,0.3c0.2,0.1,0.3,0.3,0.4,0.4c0.1,0,0.1,0.1,0.2,0.2c0.1,0,0.2,0,0.3,0.1
			c0.1,0.1,0.1,0.4-0.1,0.3c-0.1-0.1-0.2-0.2-0.4-0.1c-0.1,0-0.1,0.1-0.1,0.2c0,0-0.1,0.1-0.1,0.1C48.2,9.1,48,9.2,48,9.3
			c0,0,0,0,0,0c0,0.1-0.2,0.3-0.3,0.3c0,0.1-0.1,0.1-0.1,0.2c-0.1,0.1-0.2,0-0.3,0.1c-0.1,0.1-0.2,0.2-0.2,0.3
			c0,0.1,0.1,0.3,0.1,0.4c-0.1,0.1-0.7,0.1-0.8,0.1c-0.2,0-0.3,0-0.5,0c0-0.1,0.1-0.3,0.2-0.3c0,0,0-0.1-0.1-0.1
			c0.2,0,0.4,0.1,0.6,0c0.1-0.1,0.2-0.3,0.2-0.5c-0.1-0.2-0.5-0.4-0.7-0.5c-0.2-0.1-0.4-0.2-0.6-0.2c-0.2-0.2-0.7-0.2-1-0.4
			c-0.2-0.1-0.7-0.1-0.8-0.3c-0.2,0-0.3-0.1-0.5-0.1c-0.2,0-0.4,0-0.5,0c-0.4,0-0.7,0.3-0.8,0.6c-0.2,0.3-0.3,0.5-0.4,0.9
			c-0.1,0.3-0.2,0.7-0.3,1c-0.1,0.3-0.2,0.4-0.4,0.6c-0.1,0.1-0.2,0.1-0.3,0.2c-0.1,0.1-0.1,0.2-0.1,0.4c0,0.2,0,0.5,0.1,0.8
			c0,0.1,0.2,0.5,0.4,0.5c0.1,0.1,0.3,0.1,0.4,0.1c0.1,0,0.1,0,0.2,0c0,0,0.1-0.1,0.1-0.2c0.1-0.1,0.2-0.1,0.4-0.1
			c0.1,0,0.3,0.1,0.3,0.2c0.1,0.1,0.1,0.3,0.2,0.4c0.1,0.1,0.4,0.2,0.4,0.3c0.2,0.1,0.3,0.4,0.2,0.6c-0.2,0-0.3,0.1-0.4,0.3
			c-0.2,0-0.3,0.2-0.4,0.3c-0.1,0.1-0.3,0.3-0.5,0.4c0,0.1-0.2,0.2-0.3,0.2c-0.1,0.1-0.1,0.2-0.2,0.3c-0.1,0.2-0.3,0.4-0.6,0.5
			c-0.1,0.1-0.3,0.3-0.4,0.4c-0.1,0.1-0.3,0.3-0.4,0.3c-0.4,0.1-0.8-0.1-1.2,0c0,0.2,0.1,0.3,0.3,0.4c0.1,0.1,0.2,0.2,0.4,0.3
			c0.2,0.1,0.7,0.3,0.7,0.6c0.1,0.1,0.1,0.3,0.1,0.4c0,0.2,0.1,0.3-0.1,0.4c0,0,0,0.1,0,0.1c-0.4,0-0.8,0-1.2,0.1
			c-0.4,0.1-0.7-0.1-1.1,0c0,0.4-0.1,0.8-0.1,1.1c0,0.3,0.1,0.5,0.1,0.8c0,0.3,0.1,0.4,0.3,0.6c0.1,0.1,0.4,0.4,0.5,0.4c0,0,0,0,0,0
			c0.4,0.1,0.7,0.1,1.1,0c0.2,0,0.4-0.1,0.6-0.1c0.2-0.1,0.3-0.3,0.5-0.3c0.1-0.2,0.3-0.4,0.4-0.6c0.1-0.1,0.1-0.2,0.2-0.4
			c0-0.1,0-0.3,0.1-0.4c0,0,0,0,0,0c0-0.1,0.1-0.2,0.2-0.3c0-0.1,0.1-0.1,0.1-0.2c0.1-0.1,0.1-0.1,0.1-0.2c0.1-0.2,0.1-0.2,0.3-0.3
			c0.2-0.1,0.3-0.1,0.5-0.1c0.2,0,0.3,0,0.4-0.1c0.3-0.2,0.7-0.2,1-0.2c0.1,0,0.3,0.1,0.4,0.1c0.1,0.1,0.2,0.2,0.3,0.4
			c0.1,0.1,0.2,0.2,0.3,0.2c0.1,0.1,0.2,0.2,0.4,0.3c0.1,0.1,0.3,0.2,0.4,0.3c0.1,0.1,0.2,0.2,0.3,0.3c0,0.1,0.2,0.2,0.2,0.3
			c0.1,0.1,0.1,0.2,0,0.4c-0.1,0.3-0.4,0.1-0.6,0.1c-0.1,0-0.3-0.1-0.4,0c-0.1,0.1,0,0.3,0,0.4c0.1,0.1,0.3,0.1,0.5,0.2
			c0.1,0.1,0.2,0.1,0.4,0.1c0.1-0.3,0.3-0.6,0.5-0.8c0.1-0.1,0.2-0.2,0.2-0.4c0-0.1,0.1-0.4-0.1-0.4c0,0,0,0,0,0
			c-0.1-0.1-0.5-0.3-0.6-0.4c-0.2,0-0.3-0.1-0.4-0.2c-0.1-0.1-0.4-0.2-0.4-0.3c-0.1,0-0.3-0.2-0.4-0.3c-0.1-0.1-0.2-0.4-0.2-0.5
			c0.1,0,0.2,0,0.3,0c0.1,0,0.2,0.2,0.3,0.2c0.2,0.1,0.4,0.2,0.6,0.4c0.2,0.1,0.4,0.2,0.6,0.4c0.1,0.1,0.4,0.3,0.4,0.5
			c0.1,0,0.2,0.3,0.2,0.4c0.1,0.1,0.2,0.2,0.3,0.3c0.1,0.1,0.3,0.1,0.3,0.3c0.1,0.1,0.1,0.2,0.2,0.3c0.2,0.2,0.2,0.4,0.3,0.6
			c0.1,0,0.1,0,0.2,0.1c0,0.1,0.1,0.1,0.2,0.2c0.1,0,0.1,0,0.2,0c0-0.2,0-0.3,0-0.5c0-0.2-0.1-0.3-0.2-0.5c-0.2-0.3-0.2-0.9,0.3-0.8
			c0,0,0,0,0,0c0.1,0,0.1,0.2,0.2,0.3c0.1,0.1,0.1,0.2,0.2,0.3c0.1,0.1,0.2,0.2,0.3,0.3c0.1,0.1,0.2,0.2,0.3,0.3
			c0.2,0.5,0.5,0.7,1,0.5c0.2-0.1,0.4-0.1,0.6-0.1c0.2,0,0.5,0,0.7,0c0.1,0.1,0.1,0.2,0.2,0.4c0,0.2,0.1,0.4,0.1,0.5
			c0,0.3-0.1,0.6-0.1,0.9c0,0.2,0,0.2-0.2,0.3c-0.1,0.1-0.3,0.1-0.5,0.1c-0.4,0-0.7,0-1.1-0.1c-0.7-0.1-1.2-0.4-1.8-0.6
			c-0.1,0-0.4-0.1-0.5-0.1c-0.2,0.1-0.2,0.3-0.2,0.4c0,0.2-0.1,0.2-0.4,0.2c-0.2,0-0.4-0.1-0.5-0.2c-0.2-0.1-0.4-0.3-0.6-0.3
			c-0.2-0.1-0.5-0.1-0.6-0.1c-0.4-0.1-0.7-0.2-1.1-0.3c-0.1-0.1-0.2-0.3-0.2-0.4c0-0.2,0.1-0.4,0.1-0.6c0-0.4-0.6-0.4-0.9-0.4
			c-0.4,0-0.8,0-1.2,0c-0.2,0-0.5,0-0.7,0c-0.2,0-0.3,0.1-0.5,0.1c-0.4,0.1-0.8,0.3-1.1,0.4c-0.2,0.1-0.7,0.3-0.8,0
			c-0.3,0-0.6,0-0.7,0.3c0,0,0,0,0,0c-0.1,0.1-0.2,0.2-0.3,0.3c-0.1,0.1-0.1,0.2-0.3,0.3c-0.2,0.2-0.5,0.5-0.5,0.7
			c0,0.2,0,0.4,0,0.5c0,0.2-0.2,0.3-0.3,0.4c-0.1,0.1-0.3,0.1-0.5,0.2c-0.1,0.1-0.3,0.2-0.4,0.3c-0.2,0.2-0.2,0.2-0.2,0.5
			c-0.2,0.1-0.2,0.3-0.2,0.5c0,0.1-0.1,0.2-0.2,0.3c0,0.1-0.1,0.2-0.1,0.2c0,0.1-0.1,0.2-0.1,0.3c-0.3,0.3-0.6,0.7-0.5,1.2
			c0.1,0.1,0.1,0.4,0.2,0.5c0.1,0.2,0.1,0.4,0.1,0.6c0,0.2,0,0.4-0.2,0.6c-0.1,0.2-0.2,0.4-0.2,0.6c0,0.3,0,0.6,0,0.9
			c0,0.3,0.3,0.4,0.3,0.7c0.1,0.1,0.1,0.2,0.2,0.2c0.1,0.1,0.2,0.2,0.3,0.3c0.1,0.1,0.2,0.2,0.4,0.3c0.1,0.1,0.2,0.2,0.3,0.3
			c0.2,0.2,0.5,0.4,0.7,0.6c0.2,0.2,0.4,0.4,0.7,0.5c0.3,0.2,0.5,0.3,0.8,0.4c0.4,0,0.7,0.1,1.1,0.1c0.4,0,0.7-0.1,1.1-0.1
			c0.4,0,0.7-0.2,1-0.3c0.1-0.1,0.3-0.1,0.5-0.2c0.1,0,0.3-0.1,0.5,0c0.2,0,0.3,0.2,0.4,0.2c0,0.1,0.2,0.1,0.2,0.2
			c0.1,0.1,0.1,0.2,0.2,0.2c0.2,0.1,0.4,0.1,0.7,0.1c0.3,0,0.4,0,0.5,0.3c0.1,0.1,0.1,0.3,0.1,0.5c0,0.2-0.1,0.3-0.1,0.5
			c0,0.1,0,0.3-0.1,0.5c-0.1,0.3,0,0.7,0,1c0.1,0.3,0.4,0.5,0.6,0.8c0.1,0.3,0.3,0.5,0.4,0.9c0.1,0.3,0.1,0.6,0.1,0.9
			c0,0.3,0.1,0.6,0,0.9c-0.1,0-0.2,0.2-0.3,0.3c-0.2,0.2-0.3,0.4-0.4,0.6c-0.1,0.1-0.2,0.3-0.2,0.4c-0.1,0.3-0.1,0.7-0.1,1
			c0,0.4,0.2,0.5,0.2,0.8c0.1,0.6,0.1,1.4,0.1,2c0,0.4,0,0.7,0.1,1c0.1,0.3,0,0.6,0,0.9c0,0.2,0,0.3-0.1,0.5c0,0.1-0.1,0.3,0,0.4
			c0.1,0.2,0.9,0.2,1.1,0.1c0.4-0.1,0.7-0.2,1.1-0.3c0.3-0.1,0.6-0.3,0.9-0.5c0.3-0.2,0.6-0.4,0.8-0.6c0.3-0.2,0.6-0.5,0.8-0.9
			c0.2-0.3,0.3-0.7,0.5-0.9c0.2-0.2,0.6-0.3,0.7-0.6c0.2-0.3,0.2-0.6,0.3-1c0.1-0.3,0.3-0.5,0.4-0.8c0,0,0,0,0,0
			c0.1-0.2,0.3-0.3,0.5-0.4c0.1-0.1,0.3-0.2,0.4-0.3c0.2-0.1,0.5-0.3,0.7-0.5c0.2-0.2,0.3-0.4,0.3-0.7c0.1-0.5,0.1-1.2,0-1.8
			c0-0.5-0.1-1.2,0.2-1.6c0.2-0.3,0.4-0.6,0.6-0.8c0.2-0.3,0.5-0.6,0.7-0.8c0.1-0.1,0.3-0.3,0.4-0.4c0.2-0.2,0.3-0.4,0.4-0.6
			c0.2-0.4,0.5-0.7,0.6-1.1c0.1-0.1,0.3-0.4,0.3-0.6c0.2-0.7,0.4-1.5,0.4-2.3c-0.2,0-0.5,0.1-0.6,0.3c-0.2,0.1-0.6,0.4-0.8,0.3
			c-0.2-0.1-0.3-0.3-0.3-0.5c0-0.3,0-0.5-0.2-0.7c-0.1-0.1-0.3-0.3-0.4-0.4C55,31,55,30.7,54.9,30.4c-0.1-0.3-0.3-0.6-0.5-0.8
			c-0.2-0.2-0.3-0.5-0.4-0.8c-0.3-0.6-0.5-1.2-0.8-1.7c-0.1-0.3-0.3-0.5-0.4-0.8c0-0.1-0.1-0.3,0.1-0.3c0.1,0,0.3,0.2,0.4,0.3
			c0.2,0.2,0.3,0.5,0.4,0.8c0.1,0.3,0.3,0.6,0.5,0.8c0.2,0.3,0.3,0.5,0.5,0.8c0.1,0.3,0.3,0.5,0.5,0.8c0.2,0.4,0.4,0.8,0.5,1.2
			c0.1,0.4,0.2,0.9,0.4,1.3c0.5,0.1,0.9-0.4,1.3-0.7c0.3-0.3,0.5-0.8,1-1c0-0.1,0.2-0.3,0.3-0.4c0.1-0.2,0.2-0.4,0.4-0.5
			c0-0.2,0.1-0.3,0.2-0.4c0-0.1,0-0.3,0-0.5c0-0.1,0-0.3,0-0.5c0-0.1-0.1-0.3-0.2-0.4c-0.1-0.1-0.2-0.2-0.4-0.3
			c-0.1-0.1-0.2-0.4-0.3-0.4c-0.1-0.2-0.2-0.2-0.4-0.1c-0.1,0-0.4,0.5-0.4,0.1c-0.1,0-0.2-0.3-0.2-0.4c-0.1-0.1-0.2-0.2-0.3-0.3
			c-0.2-0.2-0.4-0.5-0.5-0.7c0,0,0,0,0,0c0,0,0,0,0,0c0,0,0,0,0,0c-0.1-0.2,0-0.3,0.2-0.2c0.2,0.1,0.2,0.3,0.3,0.4
			c0.2,0.3,0.5,0.4,0.7,0.6c0.3,0,0.7,0.2,0.8,0.4c0.1,0.1,0.3,0.2,0.5,0.3c0.2,0,0.4,0,0.6,0c0.3,0,0.3,0.1,0.5,0.3
			c0.2,0.3,0.5,0.7,0.7,1.1c0.1,0.2,0.1,0.3,0.2,0.5c0.1,0.4,0.2,0.8,0.3,1.2c0.1,0.4,0.2,0.8,0.3,1.2c0.1,0.3,0.1,0.9,0.4,1.1
			l0-0.3C62,21.3,56.2,12.1,47.6,6.9"/>
	</g>
	<g>
		<path class="st4" d="M66.2,17.9c0,0.1-0.1,0.2-0.1,0.4l0,0L66.2,17.9z"/>
	</g>
</g>
</svg>
