<svg xmlns="http://www.w3.org/2000/svg" xmlns:xlink="http://www.w3.org/1999/xlink" version="1.1" id="Layer_1" x="0px" y="0px" viewBox="189 -46.9 425.4 142.3" enable-background="new 189 -46.9 425.4 142.3" xml:space="preserve"><rect x="189.2" y="-47.2" fill="#FFFFFF" width="425" height="142.3"/><path fill="#00121E" d="M315 5.6c-0.3 0.6-1 1-1 1C315.5 6.6 315 5.6 315 5.6zM319.3 7c-0.2-2.1-1.3-2.2-2.4-2.7 -1.1-0.4-3-1-3.8-1.4 -0.7-0.4-1.5-0.6-2.3-0.7 -0.9-0.1-3 0-4-0.2 -1-0.2-2.5-0.5-2.9-0.2 -0.3 0.2-0.3 1.4-2.8 2.2 -1.5 0.5-3.4 0.9-4.9 1.3 0-0.7 0.1-2.9 2-6 2.3-3.9 2.9-5.2 1.9-6.2 -1.1-1.1-5.7 1.3-5.7 1.3s0.1-0.4 0.2-1.1c1.3-0.8 6.4-3.6 8.5-2.5 2.4 1.3-0.5 5.1-0.8 5.4 -0.3 0.3-3.5 5.2-4.2 7.2l1.4-0.4c0 0 3-4.9 4.1-6.2 1-1.3 3.5-5 1.5-6.6 -1.9-1.6-5.1-1-10.4 2.5 0.1-1.8-0.3-4.4-2.7-5.3 -4.2-1.6-17.8-0.5-33.2 11.9 0 0-6 4.2-11.8 10.2 -5.5 5.7-10.6 11.6-8.9 12.4 1.8 0.9 6.4-4.2 7-4.8 0 0 4.9 0.3 11-4.9 0 0 3.3 2.1 8 0.9 0 0-1.8 4.5 3.6 4.2 0 0-0.5 2.2 1.4 1.8 0 0-10.7 6.3-10.5 6.5 0.2 0.3 5.5-2.1 8.1-3.4 1.6-0.8 2.5-1.5 3.7-1.8 1.2-0.2 5.7-0.4 11.9-3.8 6.2-3.4 8.2-7.8 8.5-11 0 0-1.6 1.4-2 1.4 -0.4 0 0.3-1.7 0.4-2.7 0.2-1.1 1.4-5.1 0.3-4.6 -1.2 0.5-4.9 4.1-6.2 1.8 -1-1.7 1.7-4.9 1.7-4.9s-8.4 4.7-10 2.3c-1.4-2.1 1-3.8 1-3.8s-9.3 3.6-18.8 10.1c-9.5 6.4-15.2 14.3-17.1 14.6 -1.8 0.3 14.9-19.7 33-27 9.8-3.9 16.3-4.4 19-3.2 1.5 0.7 1.4 2.7 1.4 3.2 0 0-1.4 12.9 0.9 16.2 0 0 1.9-1.1 3.6-1.8 0 0-0.8 0-0.4-0.7 0.2-0.4 0.8-0.6 1.7-0.9 1.2-0.4 3.3-0.5 4.4-1.4 1.1-0.8 1-1.1 1.6-1.3 0 0 2.3 0.4 3.4 0.3 1.2-0.1 2.3-0.2 3 0 0.7 0.2 3.1 1.5 4.6 1.8 1.4 0.3 1.6 0.4 2.1 1.2 0.6 1 0.6 2 0.6 2 0 0 0 0-0.1 0 -0.8-0.5-3.1-0.4-3.1-0.4 0.6 0.1 1.1 0.3 0.3 0.5 -0.8 0.2-3.2 1-3.2 1 0.6-0.9 2-1.4 2.1-1.4 0.1 0-2.9 0-2.9 0 0.7-0.5 1-1.6 1.1-2.1 0.3 0 0.5-0.1 0.8-0.2 0.8-0.3-0.1-0.5-1.8-0.5 -1.7-0.1-3.1-0.3-3.1-0.3l-0.4 0.7c0.2-0.1 0.9-0.3 1.5-0.2 0 0.3 0.2 1.1 1 1.2 0.4 0 0.6 0 0.9-0.1 -0.3 0.6-0.9 1.5-2.3 1.3 -1-0.2-1.5-1.1-1.5-1.1s-1 2.1-2 2.6c-1 0.5-6 2.8-8 5.3 -2.1 2.5-2.9 3.4-4.5 3.8 -1.6 0.4-1.8 0.5-2 0.7 -0.2 0.2-1.9 2.9-7.3 5.8 -1.7 0.9-2.4 0.9-2.7 0.6 -0.5-0.5 0.1-1.2-0.2-1.2 -0.6 0-1 0.2-2.3 0.8 -1.8 0.8-2.8 1.4-4.2 1.5 -1.2 0.1-2.4-0.3-2.5-2.1 0 0-0.1 0-0.9 0.3 -0.9 0.3-5.9 2.6-7.8 2.7 -1 0 0.8-2.3 0.8-2.3s-4.8 2.9-5.8 3.3c-1 0.5-4 1.8-2.8-1.3 0 0-6.8 4.3-17.1 7.5 -3.3 1-4.1 0.6-4.1 1.4 0 0.4 0.4 0.5 0.9 0.6 0.7 0 2 0.1 3.2-0.1 2.2-0.3 6.4-1.2 9.4-2.2 4.7-1.5 6.2-3.1 9.4-2.2 4.2 1.2 6.3-0.6 6.3-0.6s0.6 1.1 3.2 1.1c0 0 2.4 1.8 6.7 1.1 0 0 1.7 0.9 4.2 0.8 0.2 0.9 0.4 2.5 0.3 3.7 -0.2 2.1 0 2.7 1.2 1.7 0 0 1.3 3.6 1.3 4.5 0.1 0.9 0.1 1.5 0.5 1.5 0.5 0.1 0.8 0 0.8 0s0.3 0.8 1.5 1.1c0 0 0.1 0.4-1.7 1.1 -0.9 0.4-1.7 1.2-1.4 1.6 0 0 0.7 0 1.6 0 0 0 1.1-1 2.3-0.3 0.6 0.3 0.7 0.8 0.6 1.2 0 0.1-0.1 0.3-0.2 0.5 -0.1 0.1-0.2 0.3-0.3 0.5 -0.2 0.4-0.5 0.9-0.4 1 0.2 0.3 0.8 1.2-1 1.4 0 0 0.1 0.3 0.6 0.3 0.5 0 1.9-0.9 1.9-1.3 0 0 0.6-0.7 1.1-1.7 0.4-1 0.5-1.2 0.6-1 0.1 0.2 0.6 1.3 0.2 2.2 -0.3 0.7-0.5 0.8-0.3 1.1 0 0 0.2 0.1 0.4 0.3 0.1 0.1 0.2 0.4-0.3 0.8 -0.7 0.7 1.3-0.1 1.5-0.8 0 0 0.6-0.7 0.4-3.5 0 0 0-0.3 0.3-0.1 0.4 0.2 0.9 0.8 0.9 1.3 0 0.5-0.2 1 0.1 1.1 0.4 0.2 0.4 0.7 0.2 1 -0.1 0.3-0.9 0.4-0.7 0.5 0.2 0.1 1.6 0.1 1.8-1.6 0.3-1.6-0.4-3.5-2.4-4.7 -1.9-1.2-2.5-1.7-2.8-8.7 -0.1-2.4 0.6-5.3 1.1-7.2h0c0.6-2.3 1.4-3.6 1.5-3.3 0.1 0.5-0.6 2.2-0.6 3.1 0 0 5.6-2.9 7.3-4.3 1.7-1.4 2.5-2.5 2.6-2.6 0.1-0.1 1.5-1.5 2-5.1l2.1-4.2c0 0 0.9 1.4 1.6 0.6 0.7-0.9 2.2-3.3 2.4-3.3 0 0 0.3 1.1 0.9 0.8 0.5-0.3 0.7-1.5 2-2.1 1.3-0.6 3.6-1.3 3.6-1.3s5.2-1.3 5.3-0.9c0.2 0.4 0.2 1.3 0.2 1.3S319.5 9.1 319.3 7zM287.5 46.6c0 0 0.3 0.6 0.8 0.9 0.4 0.3 1.5 0.8 2 1.3 0.2 0.2 0.4 0.5 0.3 0.6 -0.1 0.1-0.4 0-0.9-0.5 -0.6-0.5-0.9-0.2-0.9 0.1 0 0.3 0.1 1.2 0 1.8 -0.1 0.6-0.4 0.7-0.4 0 0-0.7-0.4-2.3-1-2.2 -0.5 0.1-0.8 0.5-0.9 0.8 -0.2 0.3-0.4 0.7-0.3 0.4 0 0 0.1-0.7-0.3-1.5 -0.4-0.8-0.5-0.9-0.9-0.9 -0.4-0.1-0.5-0.4 0.3-0.7C285.9 46.4 286.3 46.2 287.5 46.6zM257.6 32.8c-1.4-0.5-3.4 0-5.4 0.9 -2 0.9-11.7 4.1-17.2 3.8 0 0 0.8 1.3 4.2 1.8 0 0-0.3 1.9 3 1.2 3.3-0.7 15.3-6.1 17.8-7.5C260 32.9 259 33.3 257.6 32.8zM266.2 33.2c-0.1 0-1.8 0.1-3-0.9l-11.8 6.1c0 0-5.4 2.5-4.4 3.1 0 0 1.7 1 5.5-0.5 3.8-1.5 14.4-7.4 14.4-7.4S266.3 33.2 266.2 33.2zM271.3 34.3c0 0-1.5 0.1-2.7-0.5 0 0-6.4 4.1-7.6 4.7 -1.2 0.7-3.1 1.4-1 1.8 2.1 0.3 4.3 0.1 7.9-3C271.1 34.6 271.3 34.3 271.3 34.3zM291.5 31.2c-1.3 0.7-2.8 1.4-2.8 1.4s-0.6 2.2-0.4 6.3c0.2 5.3 0.8 6.8 2.5 7.8 2.5 1.4 2.9 3.6 2.9 4.3 0 0.7-0.1 0.9 0.1 1.1 0.2 0.2 0.2 0.4-0.1 0.9 -0.3 0.5-1 0.6-0.7 0.6 0.3 0 1.2 0.1 1.6-0.9 0.4-0.9 0.9-1.4 0.1-3.5 0 0 0.9-0.1 1.3 1.6 0.2 1.1-0.1 1.5 0.8 1.8 0 0 0.1 0.4-0.4 1 -0.4 0.4 0.2 0.3 0.5 0.2 0.6-0.3 1.1-1.1 1-2 -0.1-0.9-0.6-2.1-1-2.6 0 0 0.7 0.1 1 0.8 0.4 0.6 0.3 1 1.2 0.9 0 0 0.4 0.3 0.4 0.9 0 0.6-0.7 1-0.5 1 0.3 0 1.9-0.7 0.7-2.8 0 0-0.2-1-1.2-1.5 -1-0.5-2.2-1.9-4.4-2.3 0 0-1-1.1-1.2-1.7 0 0 0.1-0.3 0.2-0.5 0.1-0.2-1.4-7.9 2.2-14.8C295.3 29.1 292.8 30.6 291.5 31.2zM293.9 46.7c1.3 0 4.1 1.9 4 2.1 0 0.2-1-0.3-1.3-0.4 -0.3-0.1-0.7-0.2-0.4 0.3 0.3 0.5 0.8 1.6 0.8 1.8 0 0.2-0.2 0-0.2 0 -0.4-1.1-1.3-2-1.9-2.2 -0.5-0.2-0.7-0.1-0.7 0.3 0 0.4 0.2 1.1-0.3 0.1 -0.4-1-1.4-1.9-1.7-2.1 -0.3-0.2-0.2-0.4-0.2-0.4 0.1-0.1 0.4-0.2 0.6-0.1C293.2 46.1 293.9 46.7 293.9 46.7zM268.3 51.8l2.7 1.1c-0.2 1.6 1.2 2.6 1.2 2.6 -0.2 0.6-0.7 1-1 1.2 -0.2 0.1-0.3 0.1-0.3 0.2 0 0 0.2 0 0.2-0.1 2.6-1 2.8-3.3 2.7-5 -0.1-1.6-1.2-2.4-1.2-2.4 0 0 4.3 0.6 5.9 0.3 1.6-0.3 0-0.4 0-0.4 -3.3 0-6.9-1.3-8.7-0.7 -2.5 0.8-2.6 3.2-2.6 3.6 -0.3 2.3 1 3.5 1.5 4 0.1 0.1 0.3 0.2 0.3 0.2 0 0-0.1-0.2-0.1-0.3C267.6 53.6 268.3 51.8 268.3 51.8zM313.3 55.2c-2.5 0.2-5.3-0.4-5.4-0.3 0 0-0.4 0.2-0.4 0.2 2 0.9 4.2 0.7 4.7 0.8 0.5 0.1-0.1 0.3-0.1 0.3 -2.7 2.2-7.2 1.6-13.9 1.6 -6.6 0-13.6 1.9-15.9 2.3 -0.9 0.2-1.7-0.7-2.3-1 -0.9-0.4-1.5-0.7-1.5-0.7 7.8-1.7 12.2-2.1 20.6-2.7 5-0.3 9.3 0.4 9.8-3.4 0.2-1.1-0.1-2.1-0.5-2.8 -0.8-1.3-2.1-2-2.7-2.3 -0.2-0.1-0.5-0.1-0.6 0 -2.6 0.9-5.3 1.1-5.8 1.2 -0.5 0.1-0.2 0.2-0.2 0.2 2.8 0.2 5.1-0.5 5.8-0.7 0.2 0 0.4-0.1 0.5 0 0.5 0.2 1.8 0.7 2.4 2.5 1.1 3-1.2 3.7-3.2 3.8 -2 0.1-10.4 1-13.6 1.2 -3.2 0.2-11.6 1.3-14.6 1.8 -2.3 0.4-5.3 0.6-5.3 0.6 -0.8 0 0.5 0.4 3.7 0.9 3.2 0.5 4 1.7 5.3 2.6 0.6 0.4 1.7 0.4 2.8 0.3 1.3-0.1 4.1-0.9 5.9-1.2 3.5-0.6 9.5-1.3 17.8-1 4.6 0.1 6.2-1.2 7.7-3.1C315 54.9 313.3 55.2 313.3 55.2z"/><path fill="#00121E" d="M334.4 47.4V38h3.6v9.3c0 2.7 1.3 4.1 3.5 4.1 2.2 0 3.5-1.3 3.5-3.9V38h3.6v9.3c0 5-2.8 7.4-7.2 7.4C337.1 54.7 334.4 52.2 334.4 47.4zM355.3 38h3.3l7.7 10.1V38h3.6v16.4h-3.1L358.9 44v10.4h-3.6V38zM376.8 38h3.6v16.4h-3.6V38zM385.6 38h4l4.3 11.6 4.3-11.6h3.9l-6.6 16.4h-3.2L385.6 38zM407.4 38h12.4v3.2H411v3.3h7.7v3.2H411v3.4h8.9v3.2h-12.5V38zM425.6 38h7.5c2.1 0 3.7 0.6 4.8 1.7 0.9 0.9 1.4 2.2 1.4 3.8v0c0 2.6-1.4 4.3-3.5 5.1l4 5.9h-4.2l-3.5-5.3h-2.8v5.3h-3.6V38L425.6 38zM432.9 46c1.8 0 2.8-0.9 2.8-2.3v0c0-1.5-1.1-2.3-2.8-2.3h-3.6V46H432.9zM444.1 52l2.1-2.6c1.5 1.2 3 2 4.9 2 1.5 0 2.4-0.6 2.4-1.6v0c0-0.9-0.6-1.4-3.3-2.1 -3.3-0.8-5.4-1.8-5.4-5v0c0-3 2.4-4.9 5.7-4.9 2.4 0 4.4 0.8 6.1 2.1l-1.9 2.7c-1.5-1-2.9-1.6-4.3-1.6 -1.4 0-2.1 0.6-2.1 1.4v0c0 1.1 0.7 1.4 3.5 2.2 3.3 0.9 5.2 2.1 5.2 4.9v0c0 3.3-2.5 5.1-6 5.1C448.6 54.7 446.1 53.8 444.1 52zM462.8 38h3.6v16.4h-3.6V38zM477.3 41.3h-5V38h13.6v3.3h-5v13.1h-3.6V41.3L477.3 41.3zM495.7 48l-6.3-9.9h4.2l3.9 6.6 4-6.6h4.1l-6.3 9.9v6.5h-3.6V48L495.7 48z"/><polygon fill="#E32119" points="334.4 -6 341 -6 341 18.2 357.2 18.2 354.8 24.2 334.4 24.2 "/><path fill="#E32119" d="M380.3 11.6l-4-9.8 -4 9.8H380.3zM373.3-6h6.1l12.9 30.2h-6.9l-2.8-6.8h-12.8l-2.8 6.8h-6.8L373.3-6z"/><polygon fill="#E32119" points="414.3 0.2 404.9 0.2 404.9 -6 430.5 -6 430.5 0.2 421 0.2 421 24.2 414.3 24.2 "/><path fill="#E32119" d="M451.2 8.7c1.6 0 2.9-0.4 3.8-1.2 0.9-0.8 1.3-1.8 1.3-3.1V4.3c0-1.4-0.5-2.5-1.4-3.2C454 0.4 452.7 0 451.1 0h-6.6v8.7L451.2 8.7 451.2 8.7zM437.9-6h13.8c3.8 0 6.8 1 8.8 3.1 1.7 1.7 2.6 4 2.6 6.9v0.1c0 2.4-0.6 4.4-1.8 6 -1.2 1.5-2.8 2.7-4.7 3.4l7.4 10.8h-7.8l-6.5-9.7h-0.1 -5.1v9.7h-6.6L437.9-6 437.9-6zM485.1 18.6c1.3 0 2.5-0.2 3.7-0.7 1.1-0.5 2.1-1.2 2.9-2 0.8-0.9 1.4-1.9 1.9-3 0.4-1.1 0.7-2.3 0.7-3.6V9.1c0-1.3-0.2-2.5-0.7-3.7 -0.4-1.1-1.1-2.2-1.9-3 -0.8-0.9-1.8-1.5-2.9-2 -1.1-0.5-2.3-0.7-3.7-0.7 -1.4 0-2.6 0.2-3.7 0.7 -1.1 0.5-2.1 1.2-2.8 2 -0.8 0.9-1.4 1.9-1.9 3 -0.4 1.1-0.7 2.4-0.7 3.6v0.1c0 1.3 0.2 2.5 0.7 3.7 0.4 1.2 1.1 2.2 1.9 3 0.8 0.9 1.8 1.6 2.9 2.1C482.5 18.4 483.7 18.6 485.1 18.6M485 24.7c-2.3 0-4.5-0.4-6.4-1.2 -2-0.8-3.6-1.9-5.1-3.3 -1.4-1.4-2.5-3-3.3-4.9 -0.8-1.9-1.2-3.9-1.2-6.1V9.1c0-2.2 0.4-4.2 1.2-6.1 0.8-1.9 1.9-3.5 3.3-5 1.4-1.4 3.1-2.5 5.1-3.4 2-0.8 4.1-1.2 6.5-1.2 2.3 0 4.5 0.4 6.4 1.2 2 0.8 3.7 1.9 5.1 3.3 1.4 1.4 2.5 3 3.3 4.9 0.8 1.9 1.2 3.9 1.2 6.1v0.1c0 2.2-0.4 4.2-1.2 6.1 -0.8 1.9-1.9 3.6-3.3 5 -1.4 1.4-3.1 2.5-5.1 3.4C489.5 24.3 487.3 24.7 485 24.7M522.7 18.4c1.5 0 2.6-0.3 3.5-0.8 0.8-0.5 1.3-1.4 1.3-2.5V15c0-1-0.4-1.8-1.2-2.4 -0.8-0.6-2-0.9-3.7-0.9h-7.7v6.6H522.7zM520.9 6.2c1.5 0 2.6-0.3 3.5-0.8 0.9-0.5 1.3-1.3 1.3-2.4V3c0-1-0.4-1.8-1.1-2.3 -0.7-0.5-1.8-0.8-3.2-0.8h-6.5v6.4C514.8 6.2 520.9 6.2 520.9 6.2zM508.3-6h14c3.5 0 6.1 0.9 7.9 2.7 1.4 1.4 2.1 3.1 2.1 5.1v0.1c0 0.9-0.1 1.6-0.3 2.3 -0.2 0.7-0.5 1.3-0.9 1.8 -0.4 0.5-0.8 1-1.2 1.4 -0.5 0.4-1 0.7-1.5 1 1.7 0.7 3.1 1.6 4.1 2.7 1 1.1 1.5 2.7 1.5 4.7v0.1c0 1.4-0.3 2.6-0.8 3.6 -0.5 1-1.3 1.9-2.3 2.6 -1 0.7-2.2 1.2-3.6 1.5 -1.4 0.4-2.9 0.5-4.6 0.5h-14.3L508.3-6 508.3-6z"/><polygon fill="#E32119" points="541.2 -6 563.9 -6 563.9 -0.1 547.7 -0.1 547.7 6.1 559.6 6.1 559.6 12 547.7 12 547.7 18.3 564.1 18.3 564.1 24.2 541.2 24.2 "/></svg>