<?xml version="1.0" encoding="UTF-8"?>
<svg width="278px" height="54px" viewBox="0 0 278 54" version="1.1" xmlns="http://www.w3.org/2000/svg" xmlns:xlink="http://www.w3.org/1999/xlink">
    <!-- Generator: Sketch 58 (84663) - https://sketch.com -->
    <title>Group</title>
    <desc>Created with Sketch.</desc>
    <g id="Page-1" stroke="none" stroke-width="1" fill="none" fill-rule="evenodd">
        <g id="Group" transform="translate(0.000000, 0.000000)" fill="#FFFFFF" fill-rule="nonzero">
            <path d="M60.6,2.82963997 L51.54,2.82963997 C50.64,2.82963997 50.1,3.24964997 50.1,3.96963997 L50.1,4.20964997 C50.1,5.88964997 53.46,6.60963997 52.56,9.36964997 L45.42,31.9296 L38.94,9.36964997 C38.04,6.18963997 41.64,5.88964997 41.64,4.14964997 L41.64,3.96963997 C41.64,3.24964997 41.04,2.82963997 40.2,2.82963997 L25.68,2.82963997 C24.84,2.82963997 24.3,3.24964997 24.3,3.96963997 L24.3,4.14964997 C24.3,5.88964997 27.42,6.78963997 28.2,9.36964997 L29.64,13.8696 L23.7,32.1096 L15.36,9.42963997 C14.34,6.60964997 17.58,5.88964997 17.58,4.20964997 L17.58,3.96963997 C17.58,3.24964997 17.04,2.82963997 16.2,2.82963997 L1.44,2.82963997 C0.54,2.82963997 0,3.24964997 0,3.96963997 L0,4.14964997 C0,5.88964997 2.52,6.24963997 3.9,9.42963997 L17.94,42.6696 C18.72,44.5296 19.62,45.4296 21.84,45.4296 C23.52,45.4296 24.78,44.4696 25.44,42.4296 L32.28,21.8496 L39.06,42.6696 C39.66,44.5296 41.1,45.4296 43.02,45.4296 C44.88,45.4296 46.32,44.5296 47.04,42.4296 L58.38,9.36964997 C59.46,6.12963997 61.98,5.88964997 61.98,4.20964997 L61.98,3.96963997 C61.98,3.24964997 61.44,2.82963997 60.6,2.82963997 Z" id="Path"></path>
            <path d="M83.5402,35.9496 C82.4602,37.3896 80.1202,38.5896 77.5402,38.5896 C74.6002,38.5896 72.2602,37.1496 70.7002,34.6896 L82.6402,27.9696 C84.0202,27.2496 84.9802,26.0496 84.9802,24.2496 C84.9802,20.4696 81.3802,16.0296 73.5202,16.0296 C65.6602,16.0296 58.7602,21.9696 58.7602,30.8496 C58.7602,39.9696 64.8802,46.0296 73.5802,46.0296 C81.4402,46.0296 85.6402,40.0896 85.7602,36.7896 C85.8202,35.4696 84.3802,35.1096 83.5402,35.9496 Z M72.4402,18.9696 C75.5002,18.9696 76.4602,23.2296 76.4602,25.1496 C76.4602,26.4096 75.8602,27.5496 74.9002,28.2096 L69.3202,31.5696 C68.7202,29.7696 68.4202,27.6096 68.4202,25.2696 C68.4202,21.7896 69.9802,18.9696 72.4402,18.9696 Z" id="Shape"></path>
            <path d="M118.716,38.8896 L118.716,1.68964997 C118.716,0.0696445692 117.816,-0.290355031 116.076,0.249645969 L106.716,3.06963997 C105.876,3.30963997 105.336,3.96963997 105.336,4.62964997 L105.336,4.80963997 C105.336,6.54964997 108.516,6.90964997 108.516,9.72964997 L108.516,17.7096 C106.896,16.6296 104.856,16.0296 102.336,16.0296 C94.7756,16.0296 88.1156,22.0896 88.1156,31.0296 C88.1156,40.8696 95.0156,46.0296 102.276,46.0296 C105.216,46.0296 107.796,45.0696 109.596,43.3896 L109.596,43.9296 C109.596,44.8296 110.196,45.4296 111.156,45.4296 L119.736,45.4296 C120.576,45.4296 121.116,45.0096 121.116,44.2896 L121.116,44.0496 C121.116,42.3696 118.716,41.6496 118.716,38.8896 Z M104.676,43.0896 C100.176,42.9096 98.1956,31.3896 98.3756,26.3496 C98.5556,21.5496 100.176,18.9696 103.116,18.9696 C105.876,18.9696 108.516,22.6296 108.516,26.4696 L108.516,38.0496 C108.516,41.2896 106.716,43.1496 104.676,43.0896 Z" id="Shape"></path>
            <path d="M150.026,16.6296 C144.626,16.6296 142.046,16.0296 138.266,16.0296 C129.626,16.0296 123.566,21.1896 123.566,28.8096 C123.566,35.9496 129.746,40.8696 138.146,40.8696 C138.866,40.8696 139.646,40.8096 140.306,40.7496 C141.986,41.2296 142.826,43.0296 142.826,45.6096 C142.826,48.6096 141.026,50.7096 137.846,50.6496 C132.326,50.5896 133.226,41.7096 127.766,41.7096 C124.946,41.7096 123.626,43.8096 123.626,45.6696 C123.626,50.7696 129.206,53.5296 137.786,53.5296 C146.546,53.5296 153.446,50.2896 153.446,45.4896 C153.446,42.4896 151.766,40.2096 146.366,39.0696 C150.386,37.0296 152.846,33.3696 152.846,28.7496 C152.846,25.9296 151.646,23.2896 149.906,21.3096 C151.826,20.7096 154.166,20.9496 154.406,18.6096 C154.586,17.2296 153.926,16.6296 150.026,16.6296 Z M133.586,24.0096 C133.586,20.8296 134.786,18.9696 136.706,18.9696 C140.306,18.9696 142.886,27.8496 142.886,32.8296 C142.886,35.9496 141.686,37.8696 139.646,37.8696 C136.406,37.8696 133.586,30.0096 133.586,24.0096 Z" id="Shape"></path>
            <path d="M181.568,35.9496 C180.488,37.3896 178.148,38.5896 175.568,38.5896 C172.628,38.5896 170.287,37.1496 168.727,34.6896 L180.667,27.9696 C182.047,27.2496 183.008,26.0496 183.008,24.2496 C183.008,20.4696 179.408,16.0296 171.548,16.0296 C163.688,16.0296 156.788,21.9696 156.788,30.8496 C156.788,39.9696 162.907,46.0296 171.607,46.0296 C179.467,46.0296 183.668,40.0896 183.788,36.7896 C183.848,35.4696 182.408,35.1096 181.568,35.9496 Z M170.467,18.9696 C173.528,18.9696 174.488,23.2296 174.488,25.1496 C174.488,26.4096 173.888,27.5496 172.928,28.2096 L167.348,31.5696 C166.748,29.7696 166.447,27.6096 166.447,25.2696 C166.447,21.7896 168.007,18.9696 170.467,18.9696 Z" id="Shape"></path>
            <path d="M198.803,46.0296 C205.343,46.0296 208.763,41.1696 208.763,36.5496 C208.763,35.4096 207.323,35.0496 206.483,36.1296 C205.823,37.2096 204.863,38.3496 202.523,38.3496 C201.023,38.3496 199.823,37.1496 199.823,35.1096 L199.823,20.7096 L206.003,20.7096 C206.783,20.7096 207.383,20.1096 207.383,19.3296 L207.383,18.0096 C207.383,17.2296 206.783,16.6296 206.003,16.6296 L199.823,16.6296 L199.823,10.5696 C199.823,9.60964997 199.163,9.00963997 198.203,9.00963997 L196.823,9.00963997 C196.043,9.00963997 195.383,9.60964997 195.203,10.5696 C194.423,14.2296 191.543,16.6296 187.883,16.6296 L186.743,16.6296 C185.903,16.6296 185.363,17.1696 185.363,18.0096 L185.363,19.3296 C185.363,20.1096 185.963,20.7096 186.743,20.7096 L189.023,20.7096 L189.023,34.9296 C189.023,42.1896 192.863,46.0296 198.803,46.0296 Z" id="Path"></path>
            <path d="M239.022,38.8896 L237.702,28.1496 C236.742,20.7096 231.162,16.0296 223.122,16.0296 C217.002,16.0296 211.122,18.1296 211.122,23.0496 C211.122,25.3896 212.802,26.9496 215.322,26.9496 C220.662,26.9496 218.982,18.9096 223.122,18.9096 C226.242,18.9096 226.662,21.9696 227.382,29.0496 L227.382,29.2296 C225.882,28.3296 223.842,27.7296 221.322,27.7296 C215.622,27.7296 210.522,30.8496 210.522,36.9096 C210.522,43.0896 215.442,46.0296 221.862,46.0296 C225.822,46.0296 228.222,44.6496 229.482,42.9096 C229.962,45.0696 231.702,45.7896 235.302,45.7896 C238.602,45.7896 242.082,45.3696 242.082,43.8096 C242.082,42.1296 239.562,43.1496 239.022,38.8896 Z M225.162,42.9696 C222.702,42.9696 221.262,39.2496 221.262,34.9896 C221.262,32.5296 222.522,30.9096 224.322,30.9096 C226.062,30.9096 227.622,32.2896 228.042,35.8896 L228.282,38.6496 C228.282,40.6896 227.142,42.9696 225.162,42.9696 Z" id="Shape"></path>
            <path d="M251.609,13.0896 C255.689,13.0896 258.449,10.4496 258.449,7.08963997 C258.449,3.66963997 255.689,1.08964997 251.609,1.08964997 C247.469,1.08964997 244.709,3.66963997 244.709,7.08963997 C244.709,10.4496 247.469,13.0896 251.609,13.0896 Z M245.189,45.4296 L258.089,45.4296 C258.989,45.4296 259.589,45.0096 259.589,44.2896 L259.589,44.0496 C259.589,42.3096 256.889,41.5896 256.889,38.8296 L256.889,17.5896 C256.889,16.4496 255.869,15.4896 254.189,16.3296 L245.129,20.7696 C244.289,21.1896 243.749,21.4896 243.749,22.1496 L243.749,22.3896 C243.749,23.8296 246.149,24.6696 246.149,27.4296 L246.149,38.8296 C246.149,41.5896 243.749,42.3096 243.749,44.0496 L243.749,44.2896 C243.749,45.0096 244.289,45.4296 245.189,45.4296 Z" id="Shape"></path>
            <path d="M263.283,45.4296 L276.243,45.4296 C277.083,45.4296 277.683,45.0096 277.683,44.2896 L277.683,44.0496 C277.683,42.3096 275.043,41.6496 275.043,38.8896 L275.043,1.56964997 C275.043,0.489645969 273.963,-0.530355031 272.283,0.309644969 L263.223,4.74963997 C262.443,5.16964997 261.903,5.46964997 261.903,6.12964997 L261.903,6.36964997 C261.903,7.86963997 264.243,8.64963997 264.243,11.4696 L264.243,38.8896 C264.243,41.6496 261.903,42.3096 261.903,44.0496 L261.903,44.2896 C261.903,45.0096 262.443,45.4296 263.283,45.4296 Z" id="Path"></path>
        </g>
    </g>
</svg>