<svg id="Layer_1" data-name="Layer 1" xmlns="http://www.w3.org/2000/svg" viewBox="0 0 451.85 153.19"><defs><style>.cls-1{fill:#fff;}</style></defs><polygon class="cls-1" points="144.91 38.96 144.91 76.65 170.33 76.65 173.43 69.17 153.21 69.17 153.21 38.96 144.91 38.96"/><path class="cls-1" d="M201,60.88l-5-12.23-5,12.23ZM192.26,39h7.64l16.16,37.69H207.4L204,68.21H188l-3.44,8.44h-8.46Z"/><polygon class="cls-1" points="239.79 46.61 227.95 46.61 227.95 38.96 259.91 38.96 259.91 46.61 248.08 46.61 248.08 76.65 239.79 76.65 239.79 46.61"/><path class="cls-1" d="M283.28,57.27A6.86,6.86,0,0,0,288,55.82a4.9,4.9,0,0,0,1.64-3.88v-.1a4.77,4.77,0,0,0-1.73-4,7.51,7.51,0,0,0-4.78-1.35h-8.24V57.27ZM266.59,39h17.23c4.78,0,8.43,1.28,11,3.83A11.66,11.66,0,0,1,298,51.4v.11A11.83,11.83,0,0,1,295.8,59,12.83,12.83,0,0,1,290,63.19l9.21,13.46h-9.7L281.4,64.6h-6.52V76.65h-8.29Z"/><path class="cls-1" d="M322.83,69.66a11.27,11.27,0,0,0,4.57-.92A10.25,10.25,0,0,0,331,66.21a12,12,0,0,0,2.31-3.75,12.12,12.12,0,0,0,.83-4.53v-.12a12.48,12.48,0,0,0-.83-4.57,11.5,11.5,0,0,0-15.18-6.36,10.59,10.59,0,0,0-3.56,2.53,12.12,12.12,0,0,0-2.31,3.74,12.32,12.32,0,0,0-.84,4.56v.1a12.54,12.54,0,0,0,.84,4.58,11.08,11.08,0,0,0,2.37,3.76,11,11,0,0,0,8.21,3.51m-.11,7.64a20.7,20.7,0,0,1-8-1.53,20.05,20.05,0,0,1-6.32-4.15,18.19,18.19,0,0,1-4.14-6.14,19.23,19.23,0,0,1-1.49-7.55v-.12a18.9,18.9,0,0,1,1.51-7.56,19.25,19.25,0,0,1,10.53-10.39,20.62,20.62,0,0,1,8.05-1.54,20.4,20.4,0,0,1,8,1.54A19.85,19.85,0,0,1,337.18,44a18.78,18.78,0,0,1,4.15,6.13,19.55,19.55,0,0,1,1.48,7.58v.1a19,19,0,0,1-1.51,7.56,19.58,19.58,0,0,1-4.18,6.21,19.36,19.36,0,0,1-6.35,4.19,20.76,20.76,0,0,1-8,1.53"/><path class="cls-1" d="M366.08,69.38a8.11,8.11,0,0,0,4.31-1A3.42,3.42,0,0,0,372,65.3v-.11a3.55,3.55,0,0,0-1.45-3,7.79,7.79,0,0,0-4.68-1.11h-9.59v8.29Zm-2.2-15.18a8.63,8.63,0,0,0,4.36-.94,3.25,3.25,0,0,0,1.61-3v-.11a3.28,3.28,0,0,0-1.4-2.87,6.81,6.81,0,0,0-4-1h-8.18v8ZM348.15,39h17.47q6.51,0,9.83,3.34A8.71,8.71,0,0,1,378,48.71v.11a9.11,9.11,0,0,1-.41,2.85,8.9,8.9,0,0,1-1.06,2.24A9,9,0,0,1,375,55.66,10,10,0,0,1,373.12,57a12.65,12.65,0,0,1,5.14,3.36,8.65,8.65,0,0,1,1.88,5.9v.11a9.63,9.63,0,0,1-1,4.52,8.65,8.65,0,0,1-2.84,3.24A13.39,13.39,0,0,1,371.84,76a23.74,23.74,0,0,1-5.78.64H348.15Z"/><polygon class="cls-1" points="385.5 38.96 413.87 38.96 413.87 46.34 393.68 46.34 393.68 53.99 408.44 53.99 408.44 61.37 393.68 61.37 393.68 69.29 414.14 69.29 414.14 76.65 385.5 76.65 385.5 38.96"/><path class="cls-1" d="M148.82,104.44V89.8h-4.44v14.79c0,7.31,3.91,11.34,11,11.34s11.18-4.09,11.18-11.53V89.8h-4.42v14.83c0,4.67-2.43,7.34-6.67,7.34s-6.66-2.75-6.66-7.53"/><polygon class="cls-1" points="176.74 89.8 176.74 115.5 181.1 115.5 181.1 96.63 195.47 115.5 199.4 115.5 199.4 89.8 195.05 89.8 195.05 108.12 181.1 89.8 176.74 89.8"/><rect class="cls-1" x="211.64" y="89.8" width="4.43" height="25.7"/><polygon class="cls-1" points="230.38 89.8 225.47 89.8 235.86 115.5 240.1 115.5 250.5 89.8 245.73 89.8 238.06 110.47 230.38 89.8"/><polygon class="cls-1" points="263.15 104.44 276.01 104.44 276.01 100.66 263.15 100.66 263.15 93.57 277.76 93.57 277.76 89.8 258.76 89.8 258.76 115.5 277.95 115.5 277.95 111.73 263.15 111.73 263.15 104.44"/><path class="cls-1" d="M303.52,105.8a7.65,7.65,0,0,0,5.33-7.71,7.91,7.91,0,0,0-2.1-5.76c-1.66-1.65-4.22-2.53-7.4-2.53H287.67v25.7h4.44v-8.73H298l5.83,8.73H309l-6.4-9.35ZM292.11,103V93.65h6.74c3.44,0,5.49,1.74,5.49,4.67S302.23,103,299,103Z"/><path class="cls-1" d="M329,100.71c-4.37-1.12-6.46-1.77-6.46-4.33,0-1.65,1.32-3.25,4.28-3.25a12.71,12.71,0,0,1,6.89,2.4L336,92.26a15.09,15.09,0,0,0-9.05-2.85c-5.24,0-8.76,3-8.76,7.44,0,4.7,2.6,6.15,8.43,7.65,4.21,1.08,6.09,1.94,6.09,4.22,0,1.7-1.24,3.44-4.71,3.44a12.84,12.84,0,0,1-8-3l-2.56,3.07a16.62,16.62,0,0,0,10.48,3.66c5.69,0,9.22-2.93,9.22-7.66,0-4-2.18-6-8.06-7.51"/><rect class="cls-1" x="346.79" y="89.8" width="4.43" height="25.7"/><polygon class="cls-1" points="369.4 115.5 373.83 115.5 373.83 93.76 382.13 93.76 382.13 89.8 361.1 89.8 361.1 93.76 369.4 93.76 369.4 115.5"/><polygon class="cls-1" points="408.87 89.8 401.79 101.48 394.85 89.8 389.71 89.8 399.54 105.31 399.54 115.5 403.98 115.5 403.98 105.18 413.81 89.8 408.87 89.8"/><path class="cls-1" d="M121.58,58.49a2.92,2.92,0,0,1-1,1.06c1.57,0,1-1.06,1-1.06"/><path class="cls-1" d="M93.05,101.06a2.64,2.64,0,0,0,.88,1A11.81,11.81,0,0,1,96,103.41c.2.2.41.51.3.59s-.39,0-1-.57-.93-.23-1,.12a19,19,0,0,1,0,1.92c-.1.64-.42.73-.39,0s-.37-2.36-1.08-2.3a1.32,1.32,0,0,0-1,.88c-.17.35-.43.69-.35.4a3.27,3.27,0,0,0-.31-1.54c-.38-.82-.5-.91-.94-1s-.48-.44.28-.77a2.69,2.69,0,0,1,2.41-.12m33-41.16c-.22-2.15-1.37-2.32-2.5-2.78s-3.16-1-3.91-1.49a6.82,6.82,0,0,0-2.43-.74c-.9-.14-3.17,0-4.21-.16s-2.64-.47-3-.24a4.28,4.28,0,0,1-2.91,2.25c-1.57.49-3.56,1-5,1.41,0-.75.08-3,2-6.29,2.4-4,3.07-5.36,2-6.41s-5.9,1.36-5.9,1.36a9.43,9.43,0,0,0,.15-1.16c1.39-.82,6.66-3.75,8.81-2.55,2.49,1.39-.56,5.25-.84,5.61s-3.67,5.43-4.35,7.49l1.42-.39s3.15-5.06,4.24-6.4,3.61-5.19,1.59-6.89-5.28-1-10.83,2.54c.06-1.84-.3-4.6-2.84-5.56C93.25,37.87,79.1,39,63,51.83A96.27,96.27,0,0,0,50.77,62.46c-5.69,5.9-11,12-9.3,12.94,1.86,1,6.68-4.4,7.25-5,0,0,5.06.31,11.39-5.11a11,11,0,0,0,8.28.91s-1.9,4.72,3.73,4.33c0,0-.48,2.3,1.43,1.91,0,0-11.13,6.52-10.94,6.78s5.7-2.17,8.4-3.54c1.62-.82,2.59-1.61,3.89-1.82a32.09,32.09,0,0,0,12.38-4c6.47-3.54,8.54-8.11,8.84-11.39,0,0-1.65,1.49-2.06,1.44s.26-1.74.43-2.83,1.47-5.33.26-4.82-5,4.29-6.43,1.87c-1-1.79,1.79-5.15,1.79-5.15s-8.75,4.86-10.36,2.36c-1.43-2.22,1-4,1-4A112.71,112.71,0,0,0,61.19,57.93C51.3,64.62,45.34,72.84,43.41,73.16s15.53-20.51,34.36-28c10.16-4.06,17-4.59,19.73-3.31,1.6.74,1.41,2.79,1.41,3.29,0,0-1.42,13.45,1,16.82,0,0,2-1.13,3.73-1.87,0,0-.8,0-.4-.73.21-.4.86-.61,1.79-.9,1.26-.4,3.43-.57,4.59-1.41s1-1.18,1.61-1.38a17.88,17.88,0,0,0,3.58.28,9,9,0,0,1,3.1,0,34.81,34.81,0,0,0,4.76,1.85c1.5.28,1.67.39,2.17,1.27a4.88,4.88,0,0,1,.6,2.11l-.06,0a8.25,8.25,0,0,0-3.18-.46c.57.06,1.14.3.3.5s-3.32,1-3.32,1a6,6,0,0,1,2.17-1.49c.06,0-3,0-3,0a3.76,3.76,0,0,0,1.13-2.13,4.8,4.8,0,0,0,.79-.2c.82-.28-.09-.5-1.86-.57a25,25,0,0,1-3.17-.33l-.45.78a3.33,3.33,0,0,1,1.61-.23,1.21,1.21,0,0,0,1.08,1.2,1.65,1.65,0,0,0,.9-.14,2,2,0,0,1-2.4,1.31,2.48,2.48,0,0,1-1.52-1.19s-1.06,2.18-2.06,2.71-6.2,2.91-8.34,5.54-3,3.52-4.64,4-1.84.49-2.05.72-2,3-7.57,6c-1.79,1-2.53.93-2.83.63-.5-.5.14-1.3-.21-1.28a7,7,0,0,0-2.34.8c-1.83.78-3,1.44-4.38,1.56s-2.54-.29-2.63-2.19c0,0-.06,0-1,.29s-6.17,2.74-8.07,2.76c-1,0,.86-2.36.86-2.36s-5,3-6.06,3.47S59,83.65,60.22,80.47a83,83,0,0,1-17.83,7.77c-3.45,1.06-4.28.6-4.25,1.45,0,.4.39.55.91.58a16.94,16.94,0,0,0,3.31-.11,68.75,68.75,0,0,0,9.82-2.26c4.93-1.58,6.4-3.27,9.82-2.32,4.35,1.2,6.51-.6,6.51-.6s.66,1.18,3.34,1.13c0,0,2.45,1.86,6.92,1.15a10,10,0,0,0,4.39.87A18,18,0,0,1,83.47,92c-.16,2.17,0,2.78,1.21,1.71a39.75,39.75,0,0,1,1.38,4.68c.08.94.06,1.52.56,1.58a3.19,3.19,0,0,0,.84,0A2.27,2.27,0,0,0,89,101.16s.11.36-1.77,1.1c-.94.37-1.8,1.25-1.47,1.68,0,0,.78,0,1.62,0a2.14,2.14,0,0,1,2.43-.32,1.13,1.13,0,0,1,.64,1.27,1.4,1.4,0,0,1-.23.48c-.06.1-.2.28-.36.55s-.48.91-.39,1.09.82,1.21-1,1.44c0,0,.09.36.65.33s2-.92,2-1.37a6.87,6.87,0,0,0,1.1-1.82c.42-1.07.47-1.23.61-1.07a2.86,2.86,0,0,1,.24,2.25c-.29.71-.54.85-.31,1.16a3,3,0,0,0,.39.29c.15.11.17.38-.27.81-.76.77,1.31-.14,1.6-.86,0,0,.66-.76.39-3.63,0,0,0-.31.33-.08a2,2,0,0,1,1,1.37c0,.53-.23,1,.13,1.18s.38.74.24,1.09-.94.45-.75.51a1.71,1.71,0,0,0,1.9-1.64,4.82,4.82,0,0,0-2.45-4.85c-2-1.21-2.62-1.81-2.93-9.06a26.8,26.8,0,0,1,1.16-7.44h0c.66-2.4,1.46-3.74,1.5-3.47.08.48-.57,2.3-.62,3.21a67.92,67.92,0,0,0,7.55-4.51,17.14,17.14,0,0,0,2.66-2.7c.07-.09,1.51-1.5,2.08-5.29l2.22-4.35s.88,1.46,1.62.58,2.28-3.4,2.52-3.43c0,0,.36,1.14.89.81s.74-1.55,2.1-2.2a33.4,33.4,0,0,1,3.73-1.36s5.37-1.33,5.56-.93a4.93,4.93,0,0,1,.2,1.34,5.46,5.46,0,0,0,.58-3.38"/><path class="cls-1" d="M62,86.71c-1.46-.55-3.58,0-5.67.92s-12.14,4.32-17.88,4c0,0,.85,1.3,4.36,1.86,0,0-.29,2,3.17,1.21s15.86-6.32,18.47-7.8A3.6,3.6,0,0,1,62,86.71"/><path class="cls-1" d="M70.93,87.17a4.48,4.48,0,0,1-3.1-1l-12.3,6.36S49.91,95.15,51,95.82c0,0,1.75,1,5.68-.53s15-7.67,15-7.67-.65-.45-.69-.45"/><path class="cls-1" d="M76.15,88.3a6,6,0,0,1-2.8-.49s-6.64,4.22-7.89,4.9-3.23,1.48-1,1.83,4.52.12,8.24-3.09a43.16,43.16,0,0,0,3.5-3.15"/><path class="cls-1" d="M99.64,101.16c1.3,0,4.22,1.94,4.17,2.17s-1.09-.27-1.39-.39-.74-.17-.4.31a5.27,5.27,0,0,1,.79,1.86c0,.23-.24,0-.24,0a4.22,4.22,0,0,0-1.94-2.27c-.55-.21-.72-.08-.75.3s.17,1.13-.26.06a5.65,5.65,0,0,0-1.75-2.15c-.31-.2-.17-.42-.17-.42a.79.79,0,0,1,.64-.15,2.81,2.81,0,0,1,1.3.64m-2.4-16c-1.31.7-2.94,1.42-2.94,1.42a26,26,0,0,0-.44,6.6c.2,5.53.8,7.07,2.6,8.11a5.53,5.53,0,0,1,3,4.44c0,.71-.09.89.14,1.14s.21.41-.06.89-1,.61-.73.65a1.48,1.48,0,0,0,1.63-.91c.43-1,.92-1.51.1-3.6,0,0,1-.16,1.33,1.64.23,1.15-.13,1.57.79,1.9,0,0,.14.41-.38,1s.16.33.52.15a2.16,2.16,0,0,0,1-2.11,6.78,6.78,0,0,0-1-2.72,1.74,1.74,0,0,1,1,.82c.37.66.32,1,1.24,1a1.32,1.32,0,0,1,.42.94c0,.64-.76,1.09-.5,1s2-.7.68-2.88a2.55,2.55,0,0,0-1.23-1.58c-1-.53-2.27-2-4.59-2.41a7.16,7.16,0,0,1-1.27-1.78,3.68,3.68,0,0,0,.19-.54c.05-.26-1.51-8.22,2.27-15.35,0,0-2.54,1.48-3.85,2.17"/><path class="cls-1" d="M73.09,106.51l2.79,1.14a3,3,0,0,0,1.27,2.66,2.64,2.64,0,0,1-1,1.28c-.17.13-.31.16-.27.21s.15,0,.26-.06c2.66-1,2.92-3.49,2.8-5.19A3.73,3.73,0,0,0,77.69,104s4.48.62,6.11.29,0-.4,0-.4c-3.39,0-7.17-1.33-9.09-.7A4.06,4.06,0,0,0,72,107a4.32,4.32,0,0,0,1.61,4.12c.11.09.26.22.28.2s-.1-.21-.15-.29a5.5,5.5,0,0,1-.6-4.5"/><path class="cls-1" d="M119.81,110a24.61,24.61,0,0,1-5.56-.35s-.4.24-.4.24a13.79,13.79,0,0,0,4.84.83c.53.09-.1.31-.1.31-2.82,2.31-7.51,1.62-14.41,1.62s-14.13,2-16.5,2.35c-1,.16-1.75-.67-2.42-1a12.68,12.68,0,0,0-1.58-.69,131.41,131.41,0,0,1,21.4-2.82c5.23-.36,9.65.38,10.2-3.57a4.41,4.41,0,0,0-.56-3,6.09,6.09,0,0,0-2.76-2.37,1.32,1.32,0,0,0-.65,0,29.71,29.71,0,0,1-6.06,1.22c-.55.07-.25.23-.25.23a16.14,16.14,0,0,0,6-.75.88.88,0,0,1,.53,0,3.94,3.94,0,0,1,2.51,2.56c1.13,3.1-1.29,3.82-3.36,3.92s-10.8,1-14.11,1.2-12,1.39-15.21,1.86c-2.43.37-5.54.59-5.54.59-.84,0,.54.4,3.85.89s4.19,1.8,5.55,2.66a5.07,5.07,0,0,0,2.86.28c1.37-.14,4.28-1,6.14-1.28a92.63,92.63,0,0,1,18.51-1c4.77.15,6.45-1.22,8.06-3.22.76-.94-1-.65-1-.65"/></svg>