<svg height="293.42667" viewBox="0 0 394.09332 293.42667" width="394.09332" xmlns="http://www.w3.org/2000/svg"><g fill="#fff" transform="matrix(.13333333 0 0 -.13333333 0 293.42667)"><path d="m323.547 980.52v-323.551h218.164l26.57 64.25h-173.554v259.301z"/><path d="m729.98 980.512h65.579l138.711-323.551h-74.375l-29.622 72.519h-136.824l-29.523-72.519h-72.559zm74.895-188.141-43.027 104.93-42.93-104.93z"/><path d="m1137.89 914.879h-101.61v65.621h274.38v-65.621h-101.61v-257.899h-71.16z"/><path d="m1367.93 980.512h147.93c41.01 0 72.39-10.981 94.28-32.852 18.47-18.519 27.73-43.16 27.73-73.91v-.98c0-26.192-6.43-47.532-19.2-63.981-12.79-16.551-29.53-28.617-50.14-36.289l79.04-115.539h-83.21l-69.27 103.488h-1.03-54.99v-103.488h-71.14zm143.26-157.192c17.66 0 31.11 4.149 40.44 12.461 9.46 8.34 14.12 19.418 14.12 33.297v.922c0 15.43-4.95 26.969-14.86 34.66-9.76 7.668-23.51 11.539-41.04 11.539h-70.78v-92.879z"/><path d="m1849.77 651.391c-24.94 0-47.92 4.39-68.92 13.211-20.93 8.726-39.04 20.597-54.28 35.589-15.29 14.887-27.16 32.469-35.56 52.661-8.49 20.168-12.75 41.789-12.75 64.859v1.051c0 23.058 4.3 44.726 12.94 64.898 8.68 20.16 20.65 37.879 35.85 53.129 15.26 15.242 33.42 27.281 54.49 36.031 21.16 8.801 44.17 13.18 69.16 13.18 24.95 0 47.91-4.379 68.79-13.18 21.02-8.75 39.12-20.66 54.38-35.55 15.19-14.918 27.11-32.559 35.59-52.668 8.47-20.192 12.68-41.864 12.68-65.012v-.828c0-23.211-4.32-44.852-12.96-64.903-8.62-20.281-20.56-38.039-35.81-53.3-15.23-15.231-33.44-27.231-54.51-35.957-21.1-8.821-44.08-13.211-69.09-13.211m.93 65.668c14.18 0 27.22 2.621 39.24 7.839 12.07 5.192 22.28 12.411 30.79 21.711 8.45 9.282 15.06 19.993 19.84 32.172 4.78 12.09 7.12 25.098 7.12 38.93v1.051c0 13.808-2.34 26.828-7.12 39.238-4.78 12.301-11.54 23.102-20.33 32.422-8.82 9.238-19.14 16.5-31.2 21.93-12.02 5.296-25.13 8.039-39.27 8.039-14.48 0-27.68-2.563-39.54-7.86-11.88-5.312-22.03-12.48-30.49-21.691-8.47-9.231-15.1-19.988-19.88-32.149-4.78-12.132-7.2-25.23-7.2-39.101v-.828c0-13.883 2.42-27 7.2-39.352 4.78-12.371 11.52-23.148 20.36-32.269 8.75-9.332 19.07-16.7 30.94-22.09 11.87-5.332 25.05-7.992 39.54-7.992"/><path d="m2068.04 980.512h149.92c37.23 0 65.36-9.602 84.39-28.703 14.79-14.84 22.19-33.149 22.19-54.989v-.961c0-9.211-1.13-17.379-3.46-24.468-2.28-7.09-5.36-13.43-9.17-19.161-3.87-5.671-8.28-10.691-13.33-15.031-5.07-4.39-10.39-8.027-16.26-11.109 18.65-7.051 33.4-16.668 44.15-28.871 10.73-12.168 16.1-29.02 16.1-50.61v-.937c0-14.813-2.88-27.75-8.6-38.801-5.66-11.101-13.81-20.383-24.4-27.781-10.65-7.442-23.4-12.891-38.28-16.559-15.01-3.801-31.46-5.57-49.58-5.57h-153.67zm134.95-130.852c15.71 0 28.17 2.731 37.45 8.16 9.23 5.282 13.86 14.008 13.86 26.059v.961c0 10.699-4 18.988-12.05 24.609-8.06 5.813-19.6 8.602-34.7 8.602h-70.16v-68.391zm18.92-130.281c15.71 0 28.04 2.82 36.97 8.492 8.94 5.738 13.42 14.508 13.42 26.508v.992c0 10.859-4.17 19.289-12.46 25.649-8.36 6.359-21.74 9.539-40.18 9.539h-82.27v-71.18z"/><path d="m2388.57 980.512h243.54v-63.371h-173.3v-65.602h126.71v-63.379h-126.71v-67.93h175.65v-63.269h-245.89z"/><path d="m357.051 418.52v125.621h-38.055v-126.911c0-62.781 33.563-97.39 94.539-97.39 61.848 0 95.93 35.16 95.93 98.988v125.313h-37.988v-127.321c0-40.011-20.84-62.941-57.176-62.941-36.379 0-57.25 23.57-57.25 64.641"/><path d="m596.75 544.129v-220.609h37.402v162l123.387-162h33.715v220.609h-37.356v-157.207l-119.746 157.207z"/><path d="m896.27 323.539h37.968v220.609h-37.968z"/><path d="m1057.19 544.129h-42.2l89.23-220.609h36.4l89.22 220.609h-40.92l-65.89-177.391z"/><path d="m1338.43 418.5h110.33v32.422h-110.33v60.867h125.39v32.352h-163.04v-220.61h164.67v32.418h-127.02z"/><path d="m1586.97 430.539v80.609h57.89c29.49 0 47.12-15.039 47.12-40.16 0-24.847-18.11-40.449-46.16-40.449zm97.96-23.758c20.91 7.649 45.75 25.367 45.75 66.199 0 20.758-6.24 37.622-18.03 49.43-14.23 14.211-36.2 21.738-63.51 21.738h-100.29v-220.609h38.12v74.922h50.81l50.05-74.922h43.93l-54.92 80.242z"/><path d="m1903.7 450.461c-37.47 9.629-55.47 15.23-55.47 37.219 0 14.191 11.39 27.89 36.84 27.89 18.31 0 37.69-6.73 59.07-20.59l19.34 28.02c-22.39 16.281-48.54 24.531-77.72 24.531-44.97 0-75.19-25.652-75.19-63.859 0-40.41 22.34-52.871 72.4-65.731 36.14-9.23 52.25-16.621 52.25-36.222 0-14.578-10.63-29.469-40.44-29.469-23.99 0-46.05 8.211-68.96 25.82l-22-26.359c25.12-20.32 56.79-31.449 89.93-31.449 48.82 0 79.15 25.207 79.15 65.797 0 34-18.74 51.242-69.2 64.402"/><path d="m2056.37 323.539h37.99v220.609h-37.99z"/><path d="m2250.41 323.531h37.99v186.629h71.23v33.981h-180.45v-33.981h71.23z"/><path d="m2589.15 544.129-60.68-100.231-59.62 100.231h-44.08l84.36-133.098v-87.511h38.06v88.628l84.38 131.981z"/><path d="m1873.22 1677.63c-2.68-6.13-10.11-10.77-10.11-10.77 15.93.51 10.11 10.77 10.11 10.77"/><path d="m1582.37 1243.71s2.93-6.12 8.98-9.91c4.4-2.72 16.32-8.7 21.52-14.1 1.97-2.05 4.09-5.19 2.99-5.96-1.12-.8-3.96.23-9.94 5.78-5.89 5.44-9.46 2.32-9.91-1.22-.35-2.95 1.23-13.02.23-19.54-1.02-6.53-4.29-7.5-4.02-.18.25 7.29-3.8 24.12-10.99 23.45-5.55-.53-8.42-5.6-10.03-8.98-1.71-3.51-4.32-6.99-3.53-4.04 0 0 .76 7.4-3.17 15.73-3.88 8.36-5.06 9.23-9.53 9.88-4.43.63-4.86 4.48 2.81 7.82 7.8 3.36 11.39 5.2 24.59 1.27m336.65 419.6c-2.25 21.88-14.03 23.63-25.56 28.32-11.51 4.72-32.21 10.6-39.91 15.13-7.68 4.52-15.55 6.03-24.71 7.55-9.21 1.48-32.31 0-42.87 1.64-10.55 1.62-27 4.83-30.46 2.44-3.5-2.44-3.64-14.96-29.58-22.94-16.05-4.95-36.3-9.89-51.43-14.29-.33 7.57.79 30.78 20.65 64.03 24.41 40.95 31.25 54.64 20.56 65.38-11.78 11.89-60.19-13.82-60.19-13.82s1.05 4.69 1.61 11.78c14.16 8.35 67.85 38.24 89.76 25.99 25.37-14.18-5.73-53.54-8.59-57.18-2.87-3.63-37.44-55.36-44.34-76.32l14.47 3.93s32.13 51.63 43.18 65.28c11.09 13.73 36.83 52.93 16.29 70.24-20.23 17.05-53.84 10.6-110.4-25.95.61 18.76-3.1 46.91-28.95 56.67-44.15 16.65-188.41 5.28-352.25-125.68 0 0-63.78-44.96-124.95-108.37-57.96-60.11-112.03-122.64-94.77-131.82 18.97-10.09 68.01 44.75 73.81 50.38 0 0 51.69-3.1 116.21 52.13 0 0 35.34-22.55 84.4-9.3 0 0-19.45-48.15 38-44.17 0 0-4.87-23.45 14.58-19.46 0 0-113.51-66.43-111.53-69.05 1.93-2.68 58.1 22.12 85.6 36.06 16.53 8.36 26.49 16.36 39.66 18.56 13.17 2.21 60.23 4.44 126.18 40.48 65.95 36.06 87.07 82.64 90.15 116.09 0 0-16.81-15.23-20.99-14.71-4.17.49 2.66 17.72 4.37 28.91 1.63 11.2 15.01 54.28 2.64 49.14-12.35-5.2-51.4-43.84-65.5-19.06-10.35 18.24 18.2 52.47 18.2 52.47s-89.15-49.61-105.6-24.06c-14.56 22.58 10.01 40.26 10.01 40.26s-98.44-38.51-199.21-106.66c-100.77-68.23-161.54-151.94-181.2-155.28-19.64-3.35 158.32 209.13 350.16 285.69 103.69 41.39 173.16 46.74 201.17 33.78 16.37-7.6 14.39-28.52 14.39-33.59 0 0-14.45-137.14 9.75-171.44 0 0 20.65 11.51 37.98 19.05 0 0-8.15 0-4.12 7.43 2.21 4.1 8.79 6.24 18.32 9.23 12.85 4 34.96 5.73 46.7 14.34 11.7 8.62 10.69 12 16.42 14.08 0 0 24.02-4.18 36.51-2.87 12.55 1.32 24.28 2.61 31.59.26 7.32-2.36 33.11-15.9 48.51-18.78 15.39-2.89 17.1-4.07 22.17-13.03 6-10.72 6.13-21.5 6.13-21.5-.17.1-.36.23-.57.33-8.84 5.45-32.48 4.74-32.48 4.74 5.85-.66 11.69-3.09 3.1-5.21-8.62-2.1-33.9-10.05-33.9-10.05 6.64 8.99 21.61 14.91 22.17 15.16.57.31-30.32-.39-30.32-.39 7.01 4.78 10.35 16.52 11.56 21.76 2.8.41 5.42 1.16 8 2.08 8.45 2.85-.93 5.03-18.9 5.72-17.96.72-32.36 3.38-32.36 3.38l-4.54-7.92c1.75.97 9.52 3.3 16.34 2.39.34-3.46 1.96-11.38 11.1-12.33 3.75-.39 6.76.32 9.09 1.44-2.77-6.15-9.61-16.26-24.43-13.32-10.2 2.04-15.44 12.12-15.44 12.12s-10.86-22.15-21.07-27.63c-10.26-5.44-63.25-29.64-85.02-56.45-21.79-26.86-30.45-35.89-47.26-40.4-16.8-4.56-18.74-5.01-20.9-7.35-2.18-2.38-19.99-31.01-77.17-61.4-18.24-9.72-25.83-9.42-28.88-6.32-5.01 5.09 1.42 13.22-2.09 13.02-6.2-.33-10.28-2.39-23.9-8.16-18.6-7.94-30.18-14.64-44.61-15.85-13.15-1.07-25.95 2.94-26.8 22.24 0 0-.69.44-9.97-2.9-9.26-3.28-62.82-27.95-82.2-28.18-10.49-.13 8.78 24.07 8.78 24.07s-50.79-30.28-61.82-35.43c-10.98-5.13-42.36-18.7-29.85 13.73 0 0-72.4-45.37-181.73-79.17-35.24-10.9-43.62-6.15-43.35-14.79.12-4.11 3.98-5.62 9.26-5.97 7.57-.51 21.17-.66 33.76 1.11 23.5 3.28 67.32 12.58 100.05 23.07 50.29 16.06 65.3 33.39 100.16 23.7 44.33-12.25 66.39 6.06 66.39 6.06s6.67-12.01 33.97-11.54c0 0 25-18.95 70.53-11.68 0 0 17.66-9.25 44.8-8.9 1.69-9.93 4.11-26.79 3.14-39.5-1.67-22.13-.12-28.43 12.37-17.52 0 0 13.32-38.2 14.06-47.72.76-9.51.6-15.48 5.67-16.06 5.04-.6 8.57 0 8.57 0s3.44-8.63 15.66-12.04c0 0 1.04-3.68-18.09-11.23-9.54-3.71-18.36-12.72-14.96-17.04 0 0 7.91-.11 16.48.41 0 0 11.17 10.69 24.76 3.15 6.39-3.54 7.48-8.76 6.52-12.86-.37-1.57-1.08-3.25-2.32-4.95-.63-.93-2.08-2.88-3.63-5.59-2.34-3.97-4.94-9.23-3.99-11.09 1.65-3.13 8.35-12.34-10.17-14.63 0 0 .92-3.71 6.68-3.42 5.69.33 19.94 9.36 20.64 14 0 0 6.8 7.62 11.13 18.5 4.29 10.88 4.82 12.59 6.23 10.88 1.4-1.74 6.44-13.7 2.49-22.94-3.02-7.17-5.47-8.58-3.2-11.8.3-.4 1.67-1.34 3.96-2.95 1.53-1.1 1.73-3.79-2.76-8.29-7.75-7.81 13.42 1.5 16.38 8.78 0 0 6.66 7.72 3.95 37.08 0 0-.49 3.12 3.33.81 3.78-2.32 9.56-8.55 9.73-13.96.2-5.44-2.39-10.39 1.32-12.08 3.71-1.71 3.83-7.54 2.41-11.08-1.39-3.51-9.56-4.6-7.63-5.22 1.9-.6 16.78-.7 19.4 16.69 2.61 17.42-4.78 37.22-24.94 49.5-20.16 12.26-26.74 18.44-29.87 92.32-1.09 25.69 6.39 55.75 11.81 75.85h.02c6.72 24.49 14.93 38.15 15.36 35.41.77-4.86-5.87-23.46-6.36-32.77 0 0 59.39 31.12 76.99 45.99 17.84 15.07 26.53 26.56 27.15 27.49.62.89 15.4 15.37 21.13 53.98l22.63 44.35s9.05-14.95 16.61-5.89c7.55 9.07 23.19 34.59 25.61 34.88 0 0 3.67-11.54 9.09-8.25 5.44 3.32 7.52 15.79 21.43 22.43 13.87 6.62 37.99 13.88 37.99 13.88s54.71 13.56 56.64 9.45c1.9-4.08 2.06-13.64 2.06-13.64s8.31 12.64 6 34.52"/><path d="m1265.68 1390c-14.86 5.61-36.42.18-57.73-9.44-21.33-9.67-123.73-43.99-182.28-40.38 0 0 8.68-13.25 44.47-18.89 0 0-2.95-19.95 32.28-12.32 35.2 7.65 161.7 64.39 188.26 79.48 0 0-10.16-4.08-25 1.55"/><path d="m1356.89 1385.32c-.78 0-19.17-1.59-31.66 9.83l-125.35-64.79s-57.29-26.43-46.65-33.23c0 0 17.89-10.2 57.96 5.36 40.07 15.53 152.75 78.15 152.75 78.15s-6.7 4.68-7.05 4.68"/><path d="m1410.12 1373.78s-16.12-1.4-28.61 4.99c0 0-67.61-43.03-80.41-49.96-12.81-6.9-32.96-15.11-10.71-18.67 22.27-3.57 46.04-1.25 83.99 31.49 33.89 29.26 35.74 32.15 35.74 32.15"/><path d="m1649.52 1242.64c13.29.36 43.03-19.72 42.48-22.13-.48-2.42-11.03 2.8-14.18 4.06-3.14 1.28-7.52 1.65-3.98-3.25 3.57-4.89 8.16-16.49 7.95-18.9-.2-2.38-2.41-.4-2.41-.4-3.95 11.37-14.07 20.9-19.72 23.09-5.64 2.21-7.31.84-7.65-3.03-.29-3.87 1.67-11.48-2.7-.62-4.39 10.85-14.72 19.85-17.83 21.93-3.15 2.08-1.67 4.27-1.67 4.27 1.4 1.48 3.9 1.73 6.45 1.5 6.54-.57 13.26-6.52 13.26-6.52m-24.45 163.63c-13.38-7.09-29.93-14.48-29.93-14.48s-6.1-23.77-4.54-67.25c2.04-56.35 8.15-72.14 26.47-82.74 26.16-15.05 30.86-37.98 30.72-45.2-.15-7.25-.88-9.11 1.42-11.7 2.33-2.64 2.16-4.13-.63-9.04-2.75-4.92-10.61-6.16-7.37-6.59 3.24-.44 12.3-.78 16.62 9.22s9.39 15.4.96 36.77c0 0 9.81 1.59 13.56-16.76 2.43-11.7-1.26-16 8.08-19.38 0 0 1.42-4.2-3.9-10.11-4.13-4.6 1.67-3.42 5.26-1.63 6.21 2.98 11.67 11.54 10.76 21.52-.84 9.53-6.47 21.76-10.53 27.8 0 0 6.94-1.52 10.69-8.33 3.8-6.78 3.24-10.39 12.63-9.87 0 0 4.07-3.09 4.36-9.6.31-6.46-7.75-11.07-5.13-10.64 2.64.49 20.43 7.11 6.94 29.34 0 0-2.22 10.63-12.49 16.09-10.28 5.4-23.18 20.4-46.81 24.55 0 0-10.86 11.46-13 18.19 0 0 1.34 2.96 1.9 5.53.57 2.62-15.36 83.75 23.26 156.45 0 0-25.88-15.09-39.3-22.14"/><path d="m1378.84 1188.11 28.49-11.57c-2.6-16.59 12.94-27.1 12.94-27.1-1.67-6.05-7.02-10.8-10.18-13.16-1.79-1.23-3.13-1.54-2.75-2.04.2-.26 1.57.19 2.57.59 27.2 10.49 29.82 35.51 28.64 52.95-1.12 16.53-12.81 25.72-12.81 25.72-.37-.13 45.73-6.36 62.36-2.98 16.68 3.33-.12 4.12-.12 4.12-34.6-.33-73.17 13.5-92.71 7.12-26.32-8.59-27.5-34.1-27.99-38.42-3.07-24.16 10.21-37.36 16.35-42.03 1.17-.9 2.7-2.2 2.93-2.01.22.22-1.08 2.1-1.55 2.88-14.24 26.59-6.17 45.93-6.17 45.93"/><path d="m1855.17 1152.62c-26.59-2.19-56.37 3.74-56.68 3.6-.37-.14-4.04-2.47-4.04-2.47 20.75-9.25 43.99-7.48 49.35-8.39 5.36-.92-1.04-3.16-1.04-3.16-28.77-23.65-76.66-16.56-146.96-16.56-70.31 0-144-19.89-168.19-23.94-9.75-1.63-17.86 6.87-24.65 10.37-9.34 4.81-16.13 7.09-16.13 7.09 82.64 17.5 129.74 22.61 218.15 28.66 53.28 3.63 98.36-3.88 103.98 36.47 1.73 12.23-1.03 22.15-5.68 30.01-8.41 14.24-22.19 21.59-28.14 24.19-1.65.74-5.55.57-6.64.24-27.93-9.43-56.47-11.78-61.81-12.47-5.53-.69-2.48-2.32-2.48-2.32 29.8-2.04 53.88 4.99 61.61 7.64 1.71.6 3.67.81 5.38.29 5.71-1.69 18.9-7.6 25.62-26.16 11.48-31.57-13.21-38.87-34.26-39.94-21.07-1.06-110.1-10.49-143.78-12.26-33.75-1.8-122.75-14.06-155.05-18.89-24.82-3.77-56.5-5.97-56.5-5.97-8.62-.16 5.46-4.09 39.28-9.2 33.76-5.15 42.68-18.26 56.51-27.08 6.14-3.92 18.01-3.98 29.24-2.83 13.92 1.42 43.6 9.75 62.54 13.08 36.98 6.52 100.49 13.35 188.66 10.61 48.65-1.51 65.72 12.41 82.16 32.73 7.77 9.69-10.45 6.66-10.45 6.66"/></g></svg>