<svg width="278" height="86" viewBox="0 0 278 86" fill="none" xmlns="http://www.w3.org/2000/svg">
<path d="M47 85.8105V75.1465H50.0103C50.938 75.1465 51.7583 75.3516 52.4712 75.7617C53.1841 76.1719 53.7334 76.7554 54.1191 77.5122C54.5098 78.269 54.7075 79.1382 54.7124 80.1196V80.8008C54.7124 81.8066 54.5171 82.688 54.1265 83.4448C53.7407 84.2017 53.1865 84.7827 52.4639 85.188C51.7461 85.5933 50.9087 85.8008 49.9517 85.8105H47ZM48.4062 76.3037V84.6606H49.8857C50.9697 84.6606 51.812 84.3237 52.4126 83.6499C53.0181 82.9761 53.3208 82.0166 53.3208 80.7715V80.1489C53.3208 78.938 53.0352 77.998 52.4639 77.3291C51.8975 76.6553 51.0918 76.3135 50.0469 76.3037H48.4062Z" fill="white"/>
<path d="M68.8716 80.8813H64.25V84.6606H69.6187V85.8105H62.8438V75.1465H69.5454V76.3037H64.25V79.7314H68.8716V80.8813Z" fill="white"/>
<path d="M80.5112 81.0571C79.3052 80.7104 78.4263 80.2856 77.8745 79.7827C77.3276 79.2749 77.0542 78.6499 77.0542 77.9077C77.0542 77.0679 77.3887 76.3745 78.0576 75.8276C78.7314 75.2759 79.6055 75 80.6797 75C81.4121 75 82.064 75.1416 82.6353 75.4248C83.2114 75.708 83.6558 76.0986 83.9683 76.5967C84.2856 77.0947 84.4443 77.6392 84.4443 78.23H83.0308C83.0308 77.5854 82.8257 77.0801 82.4155 76.7139C82.0054 76.3428 81.4268 76.1572 80.6797 76.1572C79.9863 76.1572 79.4443 76.311 79.0537 76.6187C78.668 76.9214 78.4751 77.3438 78.4751 77.8857C78.4751 78.3203 78.6582 78.689 79.0244 78.9917C79.3955 79.2896 80.0229 79.563 80.9067 79.812C81.7954 80.061 82.4888 80.3369 82.9868 80.6396C83.4897 80.9375 83.8608 81.2866 84.1001 81.687C84.3442 82.0874 84.4663 82.5586 84.4663 83.1006C84.4663 83.9648 84.1294 84.6582 83.4556 85.1807C82.7817 85.6982 81.8809 85.957 80.7529 85.957C80.0205 85.957 79.3369 85.8179 78.7021 85.5396C78.0674 85.2563 77.5767 84.8706 77.23 84.3823C76.8882 83.894 76.7173 83.3398 76.7173 82.7197H78.1309C78.1309 83.3643 78.3677 83.8745 78.8413 84.2505C79.3198 84.6216 79.957 84.8071 80.7529 84.8071C81.4951 84.8071 82.064 84.6558 82.4595 84.353C82.855 84.0503 83.0527 83.6377 83.0527 83.1152C83.0527 82.5928 82.8696 82.1899 82.5034 81.9067C82.1372 81.6187 81.4731 81.3354 80.5112 81.0571Z" fill="white"/>
<path d="M93.7842 85.8105H92.3779V75.1465H93.7842V85.8105Z" fill="white"/>
<path d="M110.236 84.4116C109.875 84.9292 109.369 85.3174 108.72 85.5762C108.075 85.8301 107.323 85.957 106.464 85.957C105.595 85.957 104.823 85.7544 104.149 85.3491C103.476 84.939 102.953 84.3579 102.582 83.606C102.216 82.854 102.028 81.9824 102.018 80.9912V80.061C102.018 78.4546 102.392 77.2095 103.139 76.3257C103.891 75.4419 104.945 75 106.303 75C107.416 75 108.312 75.2856 108.991 75.8569C109.669 76.4233 110.084 77.229 110.236 78.2739H108.83C108.566 76.8628 107.726 76.1572 106.31 76.1572C105.368 76.1572 104.652 76.4893 104.164 77.1533C103.681 77.8125 103.437 78.7695 103.432 80.0244V80.896C103.432 82.0923 103.705 83.0444 104.252 83.7524C104.799 84.4556 105.539 84.8071 106.471 84.8071C106.999 84.8071 107.46 84.7485 107.855 84.6313C108.251 84.5142 108.578 84.3164 108.837 84.0381V81.6431H106.369V80.5005H110.236V84.4116Z" fill="white"/>
<path d="M126.783 85.8105H125.369L120 77.5928V85.8105H118.587V75.1465H120L125.384 83.4009V75.1465H126.783V85.8105Z" fill="white"/>
<path d="M148.143 81.0571C146.937 80.7104 146.058 80.2856 145.506 79.7827C144.959 79.2749 144.686 78.6499 144.686 77.9077C144.686 77.0679 145.021 76.3745 145.689 75.8276C146.363 75.2759 147.237 75 148.312 75C149.044 75 149.696 75.1416 150.267 75.4248C150.843 75.708 151.288 76.0986 151.6 76.5967C151.917 77.0947 152.076 77.6392 152.076 78.23H150.663C150.663 77.5854 150.458 77.0801 150.047 76.7139C149.637 76.3428 149.059 76.1572 148.312 76.1572C147.618 76.1572 147.076 76.311 146.686 76.6187C146.3 76.9214 146.107 77.3438 146.107 77.8857C146.107 78.3203 146.29 78.689 146.656 78.9917C147.027 79.2896 147.655 79.563 148.539 79.812C149.427 80.061 150.121 80.3369 150.619 80.6396C151.122 80.9375 151.493 81.2866 151.732 81.687C151.976 82.0874 152.098 82.5586 152.098 83.1006C152.098 83.9648 151.761 84.6582 151.087 85.1807C150.414 85.6982 149.513 85.957 148.385 85.957C147.652 85.957 146.969 85.8179 146.334 85.5396C145.699 85.2563 145.208 84.8706 144.862 84.3823C144.52 83.894 144.349 83.3398 144.349 82.7197H145.763C145.763 83.3643 146 83.8745 146.473 84.2505C146.952 84.6216 147.589 84.8071 148.385 84.8071C149.127 84.8071 149.696 84.6558 150.091 84.353C150.487 84.0503 150.685 83.6377 150.685 83.1152C150.685 82.5928 150.501 82.1899 150.135 81.9067C149.769 81.6187 149.105 81.3354 148.143 81.0571Z" fill="white"/>
<path d="M163.159 80.5005L165.942 75.1465H167.539L163.862 81.8335V85.8105H162.456V81.8335L158.779 75.1465H160.391L163.159 80.5005Z" fill="white"/>
<path d="M177.941 81.0571C176.735 80.7104 175.856 80.2856 175.304 79.7827C174.757 79.2749 174.484 78.6499 174.484 77.9077C174.484 77.0679 174.818 76.3745 175.487 75.8276C176.161 75.2759 177.035 75 178.109 75C178.842 75 179.494 75.1416 180.065 75.4248C180.641 75.708 181.085 76.0986 181.398 76.5967C181.715 77.0947 181.874 77.6392 181.874 78.23H180.46C180.46 77.5854 180.255 77.0801 179.845 76.7139C179.435 76.3428 178.856 76.1572 178.109 76.1572C177.416 76.1572 176.874 76.311 176.483 76.6187C176.098 76.9214 175.905 77.3438 175.905 77.8857C175.905 78.3203 176.088 78.689 176.454 78.9917C176.825 79.2896 177.453 79.563 178.336 79.812C179.225 80.061 179.918 80.3369 180.417 80.6396C180.919 80.9375 181.291 81.2866 181.53 81.687C181.774 82.0874 181.896 82.5586 181.896 83.1006C181.896 83.9648 181.559 84.6582 180.885 85.1807C180.211 85.6982 179.311 85.957 178.183 85.957C177.45 85.957 176.767 85.8179 176.132 85.5396C175.497 85.2563 175.006 84.8706 174.66 84.3823C174.318 83.894 174.147 83.3398 174.147 82.7197H175.561C175.561 83.3643 175.797 83.8745 176.271 84.2505C176.75 84.6216 177.387 84.8071 178.183 84.8071C178.925 84.8071 179.494 84.6558 179.889 84.353C180.285 84.0503 180.482 83.6377 180.482 83.1152C180.482 82.5928 180.299 82.1899 179.933 81.9067C179.567 81.6187 178.903 81.3354 177.941 81.0571Z" fill="white"/>
<path d="M197.073 76.3037H193.646V85.8105H192.247V76.3037H188.826V75.1465H197.073V76.3037Z" fill="white"/>
<path d="M210.683 80.8813H206.062V84.6606H211.43V85.8105H204.655V75.1465H211.357V76.3037H206.062V79.7314H210.683V80.8813Z" fill="white"/>
<path d="M220.997 75.1465L224.483 83.8477L227.97 75.1465H229.793V85.8105H228.387V81.6577L228.519 77.1753L225.018 85.8105H223.941L220.448 77.1973L220.587 81.6577V85.8105H219.181V75.1465H220.997Z" fill="white"/>
<path d="M60.6 2.82964H51.54C50.64 2.82964 50.1 3.24965 50.1 3.96964V4.20965C50.1 5.88965 53.46 6.60964 52.56 9.36965L45.42 31.9296L38.94 9.36965C38.04 6.18964 41.64 5.88965 41.64 4.14965V3.96964C41.64 3.24965 41.04 2.82964 40.2 2.82964H25.68C24.84 2.82964 24.3 3.24965 24.3 3.96964V4.14965C24.3 5.88965 27.42 6.78964 28.2 9.36965L29.64 13.8696L23.7 32.1096L15.36 9.42964C14.34 6.60965 17.58 5.88965 17.58 4.20965V3.96964C17.58 3.24965 17.04 2.82964 16.2 2.82964H1.44C0.54 2.82964 0 3.24965 0 3.96964V4.14965C0 5.88965 2.52 6.24964 3.9 9.42964L17.94 42.6696C18.72 44.5296 19.62 45.4296 21.84 45.4296C23.52 45.4296 24.78 44.4696 25.44 42.4296L32.28 21.8496L39.06 42.6696C39.66 44.5296 41.1 45.4296 43.02 45.4296C44.88 45.4296 46.32 44.5296 47.04 42.4296L58.38 9.36965C59.46 6.12964 61.98 5.88965 61.98 4.20965V3.96964C61.98 3.24965 61.44 2.82964 60.6 2.82964Z" fill="white"/>
<path d="M83.5402 35.9496C82.4602 37.3896 80.1202 38.5896 77.5402 38.5896C74.6002 38.5896 72.2602 37.1496 70.7002 34.6896L82.6402 27.9696C84.0202 27.2496 84.9802 26.0496 84.9802 24.2496C84.9802 20.4696 81.3802 16.0296 73.5202 16.0296C65.6602 16.0296 58.7602 21.9696 58.7602 30.8496C58.7602 39.9696 64.8802 46.0296 73.5802 46.0296C81.4402 46.0296 85.6402 40.0896 85.7602 36.7896C85.8202 35.4696 84.3802 35.1096 83.5402 35.9496ZM72.4402 18.9696C75.5002 18.9696 76.4602 23.2296 76.4602 25.1496C76.4602 26.4096 75.8602 27.5496 74.9002 28.2096L69.3202 31.5696C68.7202 29.7696 68.4202 27.6096 68.4202 25.2696C68.4202 21.7896 69.9802 18.9696 72.4402 18.9696Z" fill="white"/>
<path d="M118.716 38.8896V1.68965C118.716 0.0696446 117.816 -0.290355 116.076 0.249646L106.716 3.06964C105.876 3.30964 105.336 3.96964 105.336 4.62965V4.80964C105.336 6.54965 108.516 6.90965 108.516 9.72965V17.7096C106.896 16.6296 104.856 16.0296 102.336 16.0296C94.7756 16.0296 88.1156 22.0896 88.1156 31.0296C88.1156 40.8696 95.0156 46.0296 102.276 46.0296C105.216 46.0296 107.796 45.0696 109.596 43.3896V43.9296C109.596 44.8296 110.196 45.4296 111.156 45.4296H119.736C120.576 45.4296 121.116 45.0096 121.116 44.2896V44.0496C121.116 42.3696 118.716 41.6496 118.716 38.8896ZM104.676 43.0896C100.176 42.9096 98.1956 31.3896 98.3756 26.3496C98.5556 21.5496 100.176 18.9696 103.116 18.9696C105.876 18.9696 108.516 22.6296 108.516 26.4696V38.0496C108.516 41.2896 106.716 43.1496 104.676 43.0896Z" fill="white"/>
<path d="M150.026 16.6296C144.626 16.6296 142.046 16.0296 138.266 16.0296C129.626 16.0296 123.566 21.1896 123.566 28.8096C123.566 35.9496 129.746 40.8696 138.146 40.8696C138.866 40.8696 139.646 40.8096 140.306 40.7496C141.986 41.2296 142.826 43.0296 142.826 45.6096C142.826 48.6096 141.026 50.7096 137.846 50.6496C132.326 50.5896 133.226 41.7096 127.766 41.7096C124.946 41.7096 123.626 43.8096 123.626 45.6696C123.626 50.7696 129.206 53.5296 137.786 53.5296C146.546 53.5296 153.446 50.2896 153.446 45.4896C153.446 42.4896 151.766 40.2096 146.366 39.0696C150.386 37.0296 152.846 33.3696 152.846 28.7496C152.846 25.9296 151.646 23.2896 149.906 21.3096C151.826 20.7096 154.166 20.9496 154.406 18.6096C154.586 17.2296 153.926 16.6296 150.026 16.6296ZM133.586 24.0096C133.586 20.8296 134.786 18.9696 136.706 18.9696C140.306 18.9696 142.886 27.8496 142.886 32.8296C142.886 35.9496 141.686 37.8696 139.646 37.8696C136.406 37.8696 133.586 30.0096 133.586 24.0096Z" fill="white"/>
<path d="M181.568 35.9496C180.488 37.3896 178.148 38.5896 175.568 38.5896C172.628 38.5896 170.287 37.1496 168.727 34.6896L180.667 27.9696C182.047 27.2496 183.008 26.0496 183.008 24.2496C183.008 20.4696 179.408 16.0296 171.548 16.0296C163.688 16.0296 156.788 21.9696 156.788 30.8496C156.788 39.9696 162.907 46.0296 171.607 46.0296C179.467 46.0296 183.668 40.0896 183.788 36.7896C183.848 35.4696 182.408 35.1096 181.568 35.9496ZM170.467 18.9696C173.528 18.9696 174.488 23.2296 174.488 25.1496C174.488 26.4096 173.888 27.5496 172.928 28.2096L167.348 31.5696C166.748 29.7696 166.447 27.6096 166.447 25.2696C166.447 21.7896 168.007 18.9696 170.467 18.9696Z" fill="white"/>
<path d="M198.803 46.0296C205.343 46.0296 208.763 41.1696 208.763 36.5496C208.763 35.4096 207.323 35.0496 206.483 36.1296C205.823 37.2096 204.863 38.3496 202.523 38.3496C201.023 38.3496 199.823 37.1496 199.823 35.1096V20.7096H206.003C206.783 20.7096 207.383 20.1096 207.383 19.3296V18.0096C207.383 17.2296 206.783 16.6296 206.003 16.6296H199.823V10.5696C199.823 9.60965 199.163 9.00964 198.203 9.00964H196.823C196.043 9.00964 195.383 9.60965 195.203 10.5696C194.423 14.2296 191.543 16.6296 187.883 16.6296H186.743C185.903 16.6296 185.363 17.1696 185.363 18.0096V19.3296C185.363 20.1096 185.963 20.7096 186.743 20.7096H189.023V34.9296C189.023 42.1896 192.863 46.0296 198.803 46.0296Z" fill="white"/>
<path d="M239.022 38.8896L237.702 28.1496C236.742 20.7096 231.162 16.0296 223.122 16.0296C217.002 16.0296 211.122 18.1296 211.122 23.0496C211.122 25.3896 212.802 26.9496 215.322 26.9496C220.662 26.9496 218.982 18.9096 223.122 18.9096C226.242 18.9096 226.662 21.9696 227.382 29.0496V29.2296C225.882 28.3296 223.842 27.7296 221.322 27.7296C215.622 27.7296 210.522 30.8496 210.522 36.9096C210.522 43.0896 215.442 46.0296 221.862 46.0296C225.822 46.0296 228.222 44.6496 229.482 42.9096C229.962 45.0696 231.702 45.7896 235.302 45.7896C238.602 45.7896 242.082 45.3696 242.082 43.8096C242.082 42.1296 239.562 43.1496 239.022 38.8896ZM225.162 42.9696C222.702 42.9696 221.262 39.2496 221.262 34.9896C221.262 32.5296 222.522 30.9096 224.322 30.9096C226.062 30.9096 227.622 32.2896 228.042 35.8896L228.282 38.6496C228.282 40.6896 227.142 42.9696 225.162 42.9696Z" fill="white"/>
<path d="M251.609 13.0896C255.689 13.0896 258.449 10.4496 258.449 7.08964C258.449 3.66964 255.689 1.08965 251.609 1.08965C247.469 1.08965 244.709 3.66964 244.709 7.08964C244.709 10.4496 247.469 13.0896 251.609 13.0896ZM245.189 45.4296H258.089C258.989 45.4296 259.589 45.0096 259.589 44.2896V44.0496C259.589 42.3096 256.889 41.5896 256.889 38.8296V17.5896C256.889 16.4496 255.869 15.4896 254.189 16.3296L245.129 20.7696C244.289 21.1896 243.749 21.4896 243.749 22.1496V22.3896C243.749 23.8296 246.149 24.6696 246.149 27.4296V38.8296C246.149 41.5896 243.749 42.3096 243.749 44.0496V44.2896C243.749 45.0096 244.289 45.4296 245.189 45.4296Z" fill="white"/>
<path d="M263.283 45.4296H276.243C277.083 45.4296 277.683 45.0096 277.683 44.2896V44.0496C277.683 42.3096 275.043 41.6496 275.043 38.8896V1.56965C275.043 0.489646 273.963 -0.530355 272.283 0.309645L263.223 4.74964C262.443 5.16965 261.903 5.46965 261.903 6.12965V6.36965C261.903 7.86964 264.243 8.64964 264.243 11.4696V38.8896C264.243 41.6496 261.903 42.3096 261.903 44.0496V44.2896C261.903 45.0096 262.443 45.4296 263.283 45.4296Z" fill="white"/>
</svg>
