<svg xmlns="http://www.w3.org/2000/svg" viewBox="0 0 48 48" height="48" width="48" fill="#52c41a"><polygon class="st1" points="27 31.2 25.6 31 26 32.3 26.5 32.5 27 31.9 "/><path class="st1" d="M26.2 15l1.4 2.4 3.1 6v1.6L27 29.8c0 0-1.1-0.2-1.4-0.2 -0.1 0-4.3-3.8-4.3-3.8l-1.8-0.2 -4.8 2.1 -1.1-0.2L12 22.2l0.2-1.1 3.3-1.7 0.7-1.7 2-1.6 1.1 0.5 0.8-1.4h3l-0.1 2.8 2.1 1.1L26.2 15z"/><polygon class="st1" points="31.9 33 32.5 31.8 34.2 30.4 34.8 28.9 35.5 29.3 35.6 29.9 35 31.4 33.9 32.9 33.3 33.5 "/><polygon class="st1" points="35.9 28.8 36.4 29 37.2 28 37.9 27.1 38 26.5 36.5 25.7 36 25 35.1 24.4 36.1 26.4 35.6 27.5 36.2 28.1 "/></svg>