<svg xmlns="http://www.w3.org/2000/svg" viewBox="0 0 48 48" height="48" width="48" fill="#52c41a"><path class="st0" d="M24 13c-6.1 0-11 4.9-11 11s4.9 11 11 11 11-4.9 11-11S30.1 13 24 13zM32.4 19.7h-3.6c-0.3-1.9-0.9-3.4-1.7-4.6C29.4 15.9 31.3 17.5 32.4 19.7zM27.5 24c0 1-0.1 1.9-0.2 2.8h-6.7c-0.1-0.9-0.2-1.8-0.2-2.8s0.1-1.9 0.2-2.8h6.7C27.5 22.1 27.5 23 27.5 24zM24 33.4c-1.2 0-2.5-2-3.1-5.1h6.2C26.5 31.4 25.2 33.4 24 33.4zM20.9 19.7c0.6-3.1 1.9-5.1 3.1-5.1s2.5 2 3.1 5.1H20.9zM20.9 15.1c-0.7 1.2-1.3 2.7-1.7 4.6h-3.6C16.7 17.5 18.6 15.9 20.9 15.1zM15 21.2H19c-0.1 0.9-0.2 1.8-0.2 2.8s0.1 1.9 0.2 2.8H15c-0.3-0.9-0.4-1.8-0.4-2.8C14.6 23 14.7 22.1 15 21.2zM15.6 28.3h3.6c0.3 1.9 0.9 3.4 1.7 4.6C18.6 32.1 16.7 30.5 15.6 28.3zM27.1 32.9c0.7-1.2 1.3-2.7 1.7-4.6h3.6C31.3 30.5 29.4 32.1 27.1 32.9zM33 26.8H29c0.1-0.9 0.2-1.8 0.2-2.8s-0.1-1.9-0.2-2.8H33c0.3 0.9 0.4 1.8 0.4 2.8C33.4 25 33.3 25.9 33 26.8z"/></svg>
